<?xml version="1.0" encoding="utf-8" standalone="no"?>
<!DOCTYPE svg PUBLIC "-//W3C//DTD SVG 1.1//EN"
  "http://www.w3.org/Graphics/SVG/1.1/DTD/svg11.dtd">
<!-- Created with matplotlib (https://matplotlib.org/) -->
<svg height="271.092076pt" version="1.1" viewBox="0 0 508.129532 271.092076" width="508.129532pt" xmlns="http://www.w3.org/2000/svg" xmlns:xlink="http://www.w3.org/1999/xlink">
 <metadata>
  <rdf:RDF xmlns:cc="http://creativecommons.org/ns#" xmlns:dc="http://purl.org/dc/elements/1.1/" xmlns:rdf="http://www.w3.org/1999/02/22-rdf-syntax-ns#">
   <cc:Work>
    <dc:type rdf:resource="http://purl.org/dc/dcmitype/StillImage"/>
    <dc:date>2023-02-18T17:59:19.423775</dc:date>
    <dc:format>image/svg+xml</dc:format>
    <dc:creator>
     <cc:Agent>
      <dc:title>Matplotlib v3.3.4, https://matplotlib.org/</dc:title>
     </cc:Agent>
    </dc:creator>
   </cc:Work>
  </rdf:RDF>
 </metadata>
 <defs>
  <style type="text/css">*{stroke-linecap:butt;stroke-linejoin:round;}</style>
 </defs>
 <g id="figure_1">
  <g id="patch_1">
   <path d="M 0 271.092076 
L 508.129532 271.092076 
L 508.129532 0 
L 0 0 
z
" style="fill:none;"/>
  </g>
  <g id="axes_1">
   <g id="patch_2">
    <path d="M 61.559453 36.383966 
L 500.929532 36.383966 
L 500.929532 7.2 
L 61.559453 7.2 
z
" style="fill:none;"/>
   </g>
   <g id="matplotlib.axis_1">
    <g id="xtick_1">
     <g id="line2d_1">
      <defs>
       <path d="M 0 0 
L 0 6 
" id="m7aed89bdaf" style="stroke:#262626;stroke-width:1.25;"/>
      </defs>
      <g>
       <use style="fill:#262626;stroke:#262626;stroke-width:1.25;" x="62.38552" xlink:href="#m7aed89bdaf" y="36.383966"/>
      </g>
     </g>
    </g>
    <g id="xtick_2">
     <g id="line2d_2">
      <g>
       <use style="fill:#262626;stroke:#262626;stroke-width:1.25;" x="133.535312" xlink:href="#m7aed89bdaf" y="36.383966"/>
      </g>
     </g>
    </g>
    <g id="xtick_3">
     <g id="line2d_3">
      <g>
       <use style="fill:#262626;stroke:#262626;stroke-width:1.25;" x="204.685104" xlink:href="#m7aed89bdaf" y="36.383966"/>
      </g>
     </g>
    </g>
    <g id="xtick_4">
     <g id="line2d_4">
      <g>
       <use style="fill:#262626;stroke:#262626;stroke-width:1.25;" x="275.834895" xlink:href="#m7aed89bdaf" y="36.383966"/>
      </g>
     </g>
    </g>
    <g id="xtick_5">
     <g id="line2d_5">
      <g>
       <use style="fill:#262626;stroke:#262626;stroke-width:1.25;" x="346.984687" xlink:href="#m7aed89bdaf" y="36.383966"/>
      </g>
     </g>
    </g>
    <g id="xtick_6">
     <g id="line2d_6">
      <g>
       <use style="fill:#262626;stroke:#262626;stroke-width:1.25;" x="418.134479" xlink:href="#m7aed89bdaf" y="36.383966"/>
      </g>
     </g>
    </g>
    <g id="xtick_7">
     <g id="line2d_7">
      <g>
       <use style="fill:#262626;stroke:#262626;stroke-width:1.25;" x="489.284271" xlink:href="#m7aed89bdaf" y="36.383966"/>
      </g>
     </g>
    </g>
   </g>
   <g id="matplotlib.axis_2"/>
   <g id="patch_3">
    <path clip-path="url(#pffc8fa1726)" d="M 237.154564 10.118397 
L 237.154564 33.465569 
L 325.094944 33.465569 
L 325.094944 10.118397 
L 237.154564 10.118397 
z
" style="fill:#3b34d5;stroke:#505050;stroke-linejoin:miter;stroke-width:1.5;"/>
   </g>
   <g id="line2d_8">
    <path clip-path="url(#pffc8fa1726)" d="M 237.154564 21.791983 
L 117.65296 21.791983 
" style="fill:none;stroke:#505050;stroke-linecap:round;stroke-width:1.5;"/>
   </g>
   <g id="line2d_9">
    <path clip-path="url(#pffc8fa1726)" d="M 325.094944 21.791983 
L 445.606275 21.791983 
" style="fill:none;stroke:#505050;stroke-linecap:round;stroke-width:1.5;"/>
   </g>
   <g id="line2d_10">
    <path clip-path="url(#pffc8fa1726)" d="M 117.65296 15.95519 
L 117.65296 27.628776 
" style="fill:none;stroke:#505050;stroke-linecap:round;stroke-width:1.5;"/>
   </g>
   <g id="line2d_11">
    <path clip-path="url(#pffc8fa1726)" d="M 445.606275 15.95519 
L 445.606275 27.628776 
" style="fill:none;stroke:#505050;stroke-linecap:round;stroke-width:1.5;"/>
   </g>
   <g id="line2d_12">
    <defs>
     <path d="M 0 3.535534 
L 2.12132 0 
L 0 -3.535534 
L -2.12132 0 
z
" id="m8e12d90b54" style="stroke:#505050;stroke-linejoin:miter;"/>
    </defs>
    <g clip-path="url(#pffc8fa1726)">
     <use style="fill:#505050;stroke:#505050;stroke-linejoin:miter;" x="86.391835" xlink:href="#m8e12d90b54" y="21.791983"/>
     <use style="fill:#505050;stroke:#505050;stroke-linejoin:miter;" x="81.53082" xlink:href="#m8e12d90b54" y="21.791983"/>
     <use style="fill:#505050;stroke:#505050;stroke-linejoin:miter;" x="103.688105" xlink:href="#m8e12d90b54" y="21.791983"/>
     <use style="fill:#505050;stroke:#505050;stroke-linejoin:miter;" x="87.390434" xlink:href="#m8e12d90b54" y="21.791983"/>
     <use style="fill:#505050;stroke:#505050;stroke-linejoin:miter;" x="91.134445" xlink:href="#m8e12d90b54" y="21.791983"/>
     <use style="fill:#505050;stroke:#505050;stroke-linejoin:miter;" x="101.168479" xlink:href="#m8e12d90b54" y="21.791983"/>
     <use style="fill:#505050;stroke:#505050;stroke-linejoin:miter;" x="102.625387" xlink:href="#m8e12d90b54" y="21.791983"/>
     <use style="fill:#505050;stroke:#505050;stroke-linejoin:miter;" x="480.958165" xlink:href="#m8e12d90b54" y="21.791983"/>
     <use style="fill:#505050;stroke:#505050;stroke-linejoin:miter;" x="470.696952" xlink:href="#m8e12d90b54" y="21.791983"/>
    </g>
   </g>
   <g id="line2d_13">
    <path clip-path="url(#pffc8fa1726)" d="M 279.920653 10.118397 
L 279.920653 33.465569 
" style="fill:none;stroke:#505050;stroke-linecap:round;stroke-width:1.5;"/>
   </g>
   <g id="patch_4">
    <path d="M 61.559453 36.383966 
L 500.929532 36.383966 
" style="fill:none;stroke:#262626;stroke-linecap:square;stroke-linejoin:miter;stroke-width:1.25;"/>
   </g>
  </g>
  <g id="axes_2">
   <g id="patch_5">
    <path d="M 61.559453 221.215748 
L 500.929532 221.215748 
L 500.929532 55.839943 
L 61.559453 55.839943 
z
" style="fill:none;"/>
   </g>
   <g id="matplotlib.axis_3">
    <g id="xtick_8">
     <g id="line2d_14">
      <path clip-path="url(#pf30a471855)" d="M 62.38552 221.215748 
L 62.38552 55.839943 
" style="fill:none;stroke:#cccccc;stroke-linecap:round;"/>
     </g>
     <g id="line2d_15">
      <defs>
       <path d="M 0 0 
L 0 6 
" id="m6b482cc395" style="stroke:#000000;stroke-width:1.25;"/>
      </defs>
      <g>
       <use style="stroke:#000000;stroke-width:1.25;" x="62.38552" xlink:href="#m6b482cc395" y="221.215748"/>
      </g>
     </g>
     <g id="text_1">
      <!-- −3 -->
      <g transform="translate(53.549309 241.810357)scale(0.155 -0.155)">
       <defs>
        <path d="M 52.828125 31.203125 
L 5.5625 31.203125 
L 5.5625 39.40625 
L 52.828125 39.40625 
z
" id="ArialMT-8722"/>
        <path d="M 4.203125 18.890625 
L 12.984375 20.0625 
Q 14.5 12.59375 18.140625 9.296875 
Q 21.78125 6 27 6 
Q 33.203125 6 37.46875 10.296875 
Q 41.75 14.59375 41.75 20.953125 
Q 41.75 27 37.796875 30.921875 
Q 33.84375 34.859375 27.734375 34.859375 
Q 25.25 34.859375 21.53125 33.890625 
L 22.515625 41.609375 
Q 23.390625 41.5 23.921875 41.5 
Q 29.546875 41.5 34.03125 44.421875 
Q 38.53125 47.359375 38.53125 53.46875 
Q 38.53125 58.296875 35.25 61.46875 
Q 31.984375 64.65625 26.8125 64.65625 
Q 21.6875 64.65625 18.265625 61.421875 
Q 14.84375 58.203125 13.875 51.765625 
L 5.078125 53.328125 
Q 6.6875 62.15625 12.390625 67.015625 
Q 18.109375 71.875 26.609375 71.875 
Q 32.46875 71.875 37.390625 69.359375 
Q 42.328125 66.84375 44.9375 62.5 
Q 47.5625 58.15625 47.5625 53.265625 
Q 47.5625 48.640625 45.0625 44.828125 
Q 42.578125 41.015625 37.703125 38.765625 
Q 44.046875 37.3125 47.5625 32.6875 
Q 51.078125 28.078125 51.078125 21.140625 
Q 51.078125 11.765625 44.234375 5.25 
Q 37.40625 -1.265625 26.953125 -1.265625 
Q 17.53125 -1.265625 11.296875 4.34375 
Q 5.078125 9.96875 4.203125 18.890625 
z
" id="ArialMT-51"/>
       </defs>
       <use xlink:href="#ArialMT-8722"/>
       <use x="58.398438" xlink:href="#ArialMT-51"/>
      </g>
     </g>
    </g>
    <g id="xtick_9">
     <g id="line2d_16">
      <path clip-path="url(#pf30a471855)" d="M 133.535312 221.215748 
L 133.535312 55.839943 
" style="fill:none;stroke:#cccccc;stroke-linecap:round;"/>
     </g>
     <g id="line2d_17">
      <g>
       <use style="stroke:#000000;stroke-width:1.25;" x="133.535312" xlink:href="#m6b482cc395" y="221.215748"/>
      </g>
     </g>
     <g id="text_2">
      <!-- −2 -->
      <g transform="translate(124.699101 241.810357)scale(0.155 -0.155)">
       <defs>
        <path d="M 50.34375 8.453125 
L 50.34375 0 
L 3.03125 0 
Q 2.9375 3.171875 4.046875 6.109375 
Q 5.859375 10.9375 9.828125 15.625 
Q 13.8125 20.3125 21.34375 26.46875 
Q 33.015625 36.03125 37.109375 41.625 
Q 41.21875 47.21875 41.21875 52.203125 
Q 41.21875 57.421875 37.46875 61 
Q 33.734375 64.59375 27.734375 64.59375 
Q 21.390625 64.59375 17.578125 60.78125 
Q 13.765625 56.984375 13.71875 50.25 
L 4.6875 51.171875 
Q 5.609375 61.28125 11.65625 66.578125 
Q 17.71875 71.875 27.9375 71.875 
Q 38.234375 71.875 44.234375 66.15625 
Q 50.25 60.453125 50.25 52 
Q 50.25 47.703125 48.484375 43.546875 
Q 46.734375 39.40625 42.65625 34.8125 
Q 38.578125 30.21875 29.109375 22.21875 
Q 21.1875 15.578125 18.9375 13.203125 
Q 16.703125 10.84375 15.234375 8.453125 
z
" id="ArialMT-50"/>
       </defs>
       <use xlink:href="#ArialMT-8722"/>
       <use x="58.398438" xlink:href="#ArialMT-50"/>
      </g>
     </g>
    </g>
    <g id="xtick_10">
     <g id="line2d_18">
      <path clip-path="url(#pf30a471855)" d="M 204.685104 221.215748 
L 204.685104 55.839943 
" style="fill:none;stroke:#cccccc;stroke-linecap:round;"/>
     </g>
     <g id="line2d_19">
      <g>
       <use style="stroke:#000000;stroke-width:1.25;" x="204.685104" xlink:href="#m6b482cc395" y="221.215748"/>
      </g>
     </g>
     <g id="text_3">
      <!-- −1 -->
      <g transform="translate(195.848893 241.810357)scale(0.155 -0.155)">
       <defs>
        <path d="M 37.25 0 
L 28.46875 0 
L 28.46875 56 
Q 25.296875 52.984375 20.140625 49.953125 
Q 14.984375 46.921875 10.890625 45.40625 
L 10.890625 53.90625 
Q 18.265625 57.375 23.78125 62.296875 
Q 29.296875 67.234375 31.59375 71.875 
L 37.25 71.875 
z
" id="ArialMT-49"/>
       </defs>
       <use xlink:href="#ArialMT-8722"/>
       <use x="58.398438" xlink:href="#ArialMT-49"/>
      </g>
     </g>
    </g>
    <g id="xtick_11">
     <g id="line2d_20">
      <path clip-path="url(#pf30a471855)" d="M 275.834895 221.215748 
L 275.834895 55.839943 
" style="fill:none;stroke:#cccccc;stroke-linecap:round;"/>
     </g>
     <g id="line2d_21">
      <g>
       <use style="stroke:#000000;stroke-width:1.25;" x="275.834895" xlink:href="#m6b482cc395" y="221.215748"/>
      </g>
     </g>
     <g id="text_4">
      <!-- 0 -->
      <g transform="translate(271.525169 241.810357)scale(0.155 -0.155)">
       <defs>
        <path d="M 4.15625 35.296875 
Q 4.15625 48 6.765625 55.734375 
Q 9.375 63.484375 14.515625 67.671875 
Q 19.671875 71.875 27.484375 71.875 
Q 33.25 71.875 37.59375 69.546875 
Q 41.9375 67.234375 44.765625 62.859375 
Q 47.609375 58.5 49.21875 52.21875 
Q 50.828125 45.953125 50.828125 35.296875 
Q 50.828125 22.703125 48.234375 14.96875 
Q 45.65625 7.234375 40.5 3 
Q 35.359375 -1.21875 27.484375 -1.21875 
Q 17.140625 -1.21875 11.234375 6.203125 
Q 4.15625 15.140625 4.15625 35.296875 
z
M 13.1875 35.296875 
Q 13.1875 17.671875 17.3125 11.828125 
Q 21.4375 6 27.484375 6 
Q 33.546875 6 37.671875 11.859375 
Q 41.796875 17.71875 41.796875 35.296875 
Q 41.796875 52.984375 37.671875 58.78125 
Q 33.546875 64.59375 27.390625 64.59375 
Q 21.34375 64.59375 17.71875 59.46875 
Q 13.1875 52.9375 13.1875 35.296875 
z
" id="ArialMT-48"/>
       </defs>
       <use xlink:href="#ArialMT-48"/>
      </g>
     </g>
    </g>
    <g id="xtick_12">
     <g id="line2d_22">
      <path clip-path="url(#pf30a471855)" d="M 346.984687 221.215748 
L 346.984687 55.839943 
" style="fill:none;stroke:#cccccc;stroke-linecap:round;"/>
     </g>
     <g id="line2d_23">
      <g>
       <use style="stroke:#000000;stroke-width:1.25;" x="346.984687" xlink:href="#m6b482cc395" y="221.215748"/>
      </g>
     </g>
     <g id="text_5">
      <!-- 1 -->
      <g transform="translate(342.674961 241.810357)scale(0.155 -0.155)">
       <use xlink:href="#ArialMT-49"/>
      </g>
     </g>
    </g>
    <g id="xtick_13">
     <g id="line2d_24">
      <path clip-path="url(#pf30a471855)" d="M 418.134479 221.215748 
L 418.134479 55.839943 
" style="fill:none;stroke:#cccccc;stroke-linecap:round;"/>
     </g>
     <g id="line2d_25">
      <g>
       <use style="stroke:#000000;stroke-width:1.25;" x="418.134479" xlink:href="#m6b482cc395" y="221.215748"/>
      </g>
     </g>
     <g id="text_6">
      <!-- 2 -->
      <g transform="translate(413.824753 241.810357)scale(0.155 -0.155)">
       <use xlink:href="#ArialMT-50"/>
      </g>
     </g>
    </g>
    <g id="xtick_14">
     <g id="line2d_26">
      <path clip-path="url(#pf30a471855)" d="M 489.284271 221.215748 
L 489.284271 55.839943 
" style="fill:none;stroke:#cccccc;stroke-linecap:round;"/>
     </g>
     <g id="line2d_27">
      <g>
       <use style="stroke:#000000;stroke-width:1.25;" x="489.284271" xlink:href="#m6b482cc395" y="221.215748"/>
      </g>
     </g>
     <g id="text_7">
      <!-- 3 -->
      <g transform="translate(484.974545 241.810357)scale(0.155 -0.155)">
       <use xlink:href="#ArialMT-51"/>
      </g>
     </g>
    </g>
    <g id="text_8">
     <!-- $x_{i}$ variable -->
     <g transform="translate(241.176992 260.668561)scale(0.155 -0.155)">
      <defs>
       <path d="M 60.015625 54.6875 
L 34.90625 27.875 
L 50.296875 0 
L 39.984375 0 
L 28.421875 21.6875 
L 8.296875 0 
L -2.59375 0 
L 24.3125 28.8125 
L 10.015625 54.6875 
L 20.3125 54.6875 
L 30.8125 34.90625 
L 49.125 54.6875 
z
" id="DejaVuSans-Oblique-120"/>
       <path d="M 18.3125 75.984375 
L 27.296875 75.984375 
L 25.09375 64.59375 
L 16.109375 64.59375 
z
M 14.203125 54.6875 
L 23.1875 54.6875 
L 12.5 0 
L 3.515625 0 
z
" id="DejaVuSans-Oblique-105"/>
       <path id="DejaVuSans-32"/>
       <path d="M 2.984375 54.6875 
L 12.5 54.6875 
L 29.59375 8.796875 
L 46.6875 54.6875 
L 56.203125 54.6875 
L 35.6875 0 
L 23.484375 0 
z
" id="DejaVuSans-118"/>
       <path d="M 34.28125 27.484375 
Q 23.390625 27.484375 19.1875 25 
Q 14.984375 22.515625 14.984375 16.5 
Q 14.984375 11.71875 18.140625 8.90625 
Q 21.296875 6.109375 26.703125 6.109375 
Q 34.1875 6.109375 38.703125 11.40625 
Q 43.21875 16.703125 43.21875 25.484375 
L 43.21875 27.484375 
z
M 52.203125 31.203125 
L 52.203125 0 
L 43.21875 0 
L 43.21875 8.296875 
Q 40.140625 3.328125 35.546875 0.953125 
Q 30.953125 -1.421875 24.3125 -1.421875 
Q 15.921875 -1.421875 10.953125 3.296875 
Q 6 8.015625 6 15.921875 
Q 6 25.140625 12.171875 29.828125 
Q 18.359375 34.515625 30.609375 34.515625 
L 43.21875 34.515625 
L 43.21875 35.40625 
Q 43.21875 41.609375 39.140625 45 
Q 35.0625 48.390625 27.6875 48.390625 
Q 23 48.390625 18.546875 47.265625 
Q 14.109375 46.140625 10.015625 43.890625 
L 10.015625 52.203125 
Q 14.9375 54.109375 19.578125 55.046875 
Q 24.21875 56 28.609375 56 
Q 40.484375 56 46.34375 49.84375 
Q 52.203125 43.703125 52.203125 31.203125 
z
" id="DejaVuSans-97"/>
       <path d="M 41.109375 46.296875 
Q 39.59375 47.171875 37.8125 47.578125 
Q 36.03125 48 33.890625 48 
Q 26.265625 48 22.1875 43.046875 
Q 18.109375 38.09375 18.109375 28.8125 
L 18.109375 0 
L 9.078125 0 
L 9.078125 54.6875 
L 18.109375 54.6875 
L 18.109375 46.1875 
Q 20.953125 51.171875 25.484375 53.578125 
Q 30.03125 56 36.53125 56 
Q 37.453125 56 38.578125 55.875 
Q 39.703125 55.765625 41.0625 55.515625 
z
" id="DejaVuSans-114"/>
       <path d="M 9.421875 54.6875 
L 18.40625 54.6875 
L 18.40625 0 
L 9.421875 0 
z
M 9.421875 75.984375 
L 18.40625 75.984375 
L 18.40625 64.59375 
L 9.421875 64.59375 
z
" id="DejaVuSans-105"/>
       <path d="M 48.6875 27.296875 
Q 48.6875 37.203125 44.609375 42.84375 
Q 40.53125 48.484375 33.40625 48.484375 
Q 26.265625 48.484375 22.1875 42.84375 
Q 18.109375 37.203125 18.109375 27.296875 
Q 18.109375 17.390625 22.1875 11.75 
Q 26.265625 6.109375 33.40625 6.109375 
Q 40.53125 6.109375 44.609375 11.75 
Q 48.6875 17.390625 48.6875 27.296875 
z
M 18.109375 46.390625 
Q 20.953125 51.265625 25.265625 53.625 
Q 29.59375 56 35.59375 56 
Q 45.5625 56 51.78125 48.09375 
Q 58.015625 40.1875 58.015625 27.296875 
Q 58.015625 14.40625 51.78125 6.484375 
Q 45.5625 -1.421875 35.59375 -1.421875 
Q 29.59375 -1.421875 25.265625 0.953125 
Q 20.953125 3.328125 18.109375 8.203125 
L 18.109375 0 
L 9.078125 0 
L 9.078125 75.984375 
L 18.109375 75.984375 
z
" id="DejaVuSans-98"/>
       <path d="M 9.421875 75.984375 
L 18.40625 75.984375 
L 18.40625 0 
L 9.421875 0 
z
" id="DejaVuSans-108"/>
       <path d="M 56.203125 29.59375 
L 56.203125 25.203125 
L 14.890625 25.203125 
Q 15.484375 15.921875 20.484375 11.0625 
Q 25.484375 6.203125 34.421875 6.203125 
Q 39.59375 6.203125 44.453125 7.46875 
Q 49.3125 8.734375 54.109375 11.28125 
L 54.109375 2.78125 
Q 49.265625 0.734375 44.1875 -0.34375 
Q 39.109375 -1.421875 33.890625 -1.421875 
Q 20.796875 -1.421875 13.15625 6.1875 
Q 5.515625 13.8125 5.515625 26.8125 
Q 5.515625 40.234375 12.765625 48.109375 
Q 20.015625 56 32.328125 56 
Q 43.359375 56 49.78125 48.890625 
Q 56.203125 41.796875 56.203125 29.59375 
z
M 47.21875 32.234375 
Q 47.125 39.59375 43.09375 43.984375 
Q 39.0625 48.390625 32.421875 48.390625 
Q 24.90625 48.390625 20.390625 44.140625 
Q 15.875 39.890625 15.1875 32.171875 
z
" id="DejaVuSans-101"/>
      </defs>
      <use transform="translate(0 0.015625)" xlink:href="#DejaVuSans-Oblique-120"/>
      <use transform="translate(59.179688 -16.390625)scale(0.7)" xlink:href="#DejaVuSans-Oblique-105"/>
      <use transform="translate(81.362305 0.015625)" xlink:href="#DejaVuSans-32"/>
      <use transform="translate(113.149414 0.015625)" xlink:href="#DejaVuSans-118"/>
      <use transform="translate(172.329102 0.015625)" xlink:href="#DejaVuSans-97"/>
      <use transform="translate(233.608398 0.015625)" xlink:href="#DejaVuSans-114"/>
      <use transform="translate(274.72168 0.015625)" xlink:href="#DejaVuSans-105"/>
      <use transform="translate(302.504883 0.015625)" xlink:href="#DejaVuSans-97"/>
      <use transform="translate(363.78418 0.015625)" xlink:href="#DejaVuSans-98"/>
      <use transform="translate(427.260742 0.015625)" xlink:href="#DejaVuSans-108"/>
      <use transform="translate(455.043945 0.015625)" xlink:href="#DejaVuSans-101"/>
     </g>
    </g>
   </g>
   <g id="matplotlib.axis_4">
    <g id="ytick_1">
     <g id="line2d_28">
      <path clip-path="url(#pf30a471855)" d="M 61.559453 221.215748 
L 500.929532 221.215748 
" style="fill:none;stroke:#cccccc;stroke-linecap:round;"/>
     </g>
     <g id="line2d_29">
      <defs>
       <path d="M 0 0 
L -6 0 
" id="m200042e7c4" style="stroke:#000000;stroke-width:1.25;"/>
      </defs>
      <g>
       <use style="stroke:#000000;stroke-width:1.25;" x="61.559453" xlink:href="#m200042e7c4" y="221.215748"/>
      </g>
     </g>
     <g id="text_9">
      <!-- 0 -->
      <g transform="translate(43.44 226.763053)scale(0.155 -0.155)">
       <use xlink:href="#ArialMT-48"/>
      </g>
     </g>
    </g>
    <g id="ytick_2">
     <g id="line2d_30">
      <path clip-path="url(#pf30a471855)" d="M 61.559453 157.191046 
L 500.929532 157.191046 
" style="fill:none;stroke:#cccccc;stroke-linecap:round;"/>
     </g>
     <g id="line2d_31">
      <g>
       <use style="stroke:#000000;stroke-width:1.25;" x="61.559453" xlink:href="#m200042e7c4" y="157.191046"/>
      </g>
     </g>
     <g id="text_10">
      <!-- 50 -->
      <g transform="translate(34.820547 162.738351)scale(0.155 -0.155)">
       <defs>
        <path d="M 4.15625 18.75 
L 13.375 19.53125 
Q 14.40625 12.796875 18.140625 9.390625 
Q 21.875 6 27.15625 6 
Q 33.5 6 37.890625 10.78125 
Q 42.28125 15.578125 42.28125 23.484375 
Q 42.28125 31 38.0625 35.34375 
Q 33.84375 39.703125 27 39.703125 
Q 22.75 39.703125 19.328125 37.765625 
Q 15.921875 35.84375 13.96875 32.765625 
L 5.71875 33.84375 
L 12.640625 70.609375 
L 48.25 70.609375 
L 48.25 62.203125 
L 19.671875 62.203125 
L 15.828125 42.96875 
Q 22.265625 47.46875 29.34375 47.46875 
Q 38.71875 47.46875 45.15625 40.96875 
Q 51.609375 34.46875 51.609375 24.265625 
Q 51.609375 14.546875 45.953125 7.46875 
Q 39.0625 -1.21875 27.15625 -1.21875 
Q 17.390625 -1.21875 11.203125 4.25 
Q 5.03125 9.71875 4.15625 18.75 
z
" id="ArialMT-53"/>
       </defs>
       <use xlink:href="#ArialMT-53"/>
       <use x="55.615234" xlink:href="#ArialMT-48"/>
      </g>
     </g>
    </g>
    <g id="ytick_3">
     <g id="line2d_32">
      <path clip-path="url(#pf30a471855)" d="M 61.559453 93.166344 
L 500.929532 93.166344 
" style="fill:none;stroke:#cccccc;stroke-linecap:round;"/>
     </g>
     <g id="line2d_33">
      <g>
       <use style="stroke:#000000;stroke-width:1.25;" x="61.559453" xlink:href="#m200042e7c4" y="93.166344"/>
      </g>
     </g>
     <g id="text_11">
      <!-- 100 -->
      <g transform="translate(26.201094 98.713649)scale(0.155 -0.155)">
       <use xlink:href="#ArialMT-49"/>
       <use x="55.615234" xlink:href="#ArialMT-48"/>
       <use x="111.230469" xlink:href="#ArialMT-48"/>
      </g>
     </g>
    </g>
    <g id="text_12">
     <!-- Frequency -->
     <g transform="translate(18.977578 178.563861)rotate(-90)scale(0.155 -0.155)">
      <defs>
       <path d="M 9.8125 72.90625 
L 51.703125 72.90625 
L 51.703125 64.59375 
L 19.671875 64.59375 
L 19.671875 43.109375 
L 48.578125 43.109375 
L 48.578125 34.8125 
L 19.671875 34.8125 
L 19.671875 0 
L 9.8125 0 
z
" id="DejaVuSans-70"/>
       <path d="M 14.796875 27.296875 
Q 14.796875 17.390625 18.875 11.75 
Q 22.953125 6.109375 30.078125 6.109375 
Q 37.203125 6.109375 41.296875 11.75 
Q 45.40625 17.390625 45.40625 27.296875 
Q 45.40625 37.203125 41.296875 42.84375 
Q 37.203125 48.484375 30.078125 48.484375 
Q 22.953125 48.484375 18.875 42.84375 
Q 14.796875 37.203125 14.796875 27.296875 
z
M 45.40625 8.203125 
Q 42.578125 3.328125 38.25 0.953125 
Q 33.9375 -1.421875 27.875 -1.421875 
Q 17.96875 -1.421875 11.734375 6.484375 
Q 5.515625 14.40625 5.515625 27.296875 
Q 5.515625 40.1875 11.734375 48.09375 
Q 17.96875 56 27.875 56 
Q 33.9375 56 38.25 53.625 
Q 42.578125 51.265625 45.40625 46.390625 
L 45.40625 54.6875 
L 54.390625 54.6875 
L 54.390625 -20.796875 
L 45.40625 -20.796875 
z
" id="DejaVuSans-113"/>
       <path d="M 8.5 21.578125 
L 8.5 54.6875 
L 17.484375 54.6875 
L 17.484375 21.921875 
Q 17.484375 14.15625 20.5 10.265625 
Q 23.53125 6.390625 29.59375 6.390625 
Q 36.859375 6.390625 41.078125 11.03125 
Q 45.3125 15.671875 45.3125 23.6875 
L 45.3125 54.6875 
L 54.296875 54.6875 
L 54.296875 0 
L 45.3125 0 
L 45.3125 8.40625 
Q 42.046875 3.421875 37.71875 1 
Q 33.40625 -1.421875 27.6875 -1.421875 
Q 18.265625 -1.421875 13.375 4.4375 
Q 8.5 10.296875 8.5 21.578125 
z
M 31.109375 56 
z
" id="DejaVuSans-117"/>
       <path d="M 54.890625 33.015625 
L 54.890625 0 
L 45.90625 0 
L 45.90625 32.71875 
Q 45.90625 40.484375 42.875 44.328125 
Q 39.84375 48.1875 33.796875 48.1875 
Q 26.515625 48.1875 22.3125 43.546875 
Q 18.109375 38.921875 18.109375 30.90625 
L 18.109375 0 
L 9.078125 0 
L 9.078125 54.6875 
L 18.109375 54.6875 
L 18.109375 46.1875 
Q 21.34375 51.125 25.703125 53.5625 
Q 30.078125 56 35.796875 56 
Q 45.21875 56 50.046875 50.171875 
Q 54.890625 44.34375 54.890625 33.015625 
z
" id="DejaVuSans-110"/>
       <path d="M 48.78125 52.59375 
L 48.78125 44.1875 
Q 44.96875 46.296875 41.140625 47.34375 
Q 37.3125 48.390625 33.40625 48.390625 
Q 24.65625 48.390625 19.8125 42.84375 
Q 14.984375 37.3125 14.984375 27.296875 
Q 14.984375 17.28125 19.8125 11.734375 
Q 24.65625 6.203125 33.40625 6.203125 
Q 37.3125 6.203125 41.140625 7.25 
Q 44.96875 8.296875 48.78125 10.40625 
L 48.78125 2.09375 
Q 45.015625 0.34375 40.984375 -0.53125 
Q 36.96875 -1.421875 32.421875 -1.421875 
Q 20.0625 -1.421875 12.78125 6.34375 
Q 5.515625 14.109375 5.515625 27.296875 
Q 5.515625 40.671875 12.859375 48.328125 
Q 20.21875 56 33.015625 56 
Q 37.15625 56 41.109375 55.140625 
Q 45.0625 54.296875 48.78125 52.59375 
z
" id="DejaVuSans-99"/>
       <path d="M 32.171875 -5.078125 
Q 28.375 -14.84375 24.75 -17.8125 
Q 21.140625 -20.796875 15.09375 -20.796875 
L 7.90625 -20.796875 
L 7.90625 -13.28125 
L 13.1875 -13.28125 
Q 16.890625 -13.28125 18.9375 -11.515625 
Q 21 -9.765625 23.484375 -3.21875 
L 25.09375 0.875 
L 2.984375 54.6875 
L 12.5 54.6875 
L 29.59375 11.921875 
L 46.6875 54.6875 
L 56.203125 54.6875 
z
" id="DejaVuSans-121"/>
      </defs>
      <use xlink:href="#DejaVuSans-70"/>
      <use x="50.269531" xlink:href="#DejaVuSans-114"/>
      <use x="89.132812" xlink:href="#DejaVuSans-101"/>
      <use x="150.65625" xlink:href="#DejaVuSans-113"/>
      <use x="214.132812" xlink:href="#DejaVuSans-117"/>
      <use x="277.511719" xlink:href="#DejaVuSans-101"/>
      <use x="339.035156" xlink:href="#DejaVuSans-110"/>
      <use x="402.414062" xlink:href="#DejaVuSans-99"/>
      <use x="457.394531" xlink:href="#DejaVuSans-121"/>
     </g>
    </g>
   </g>
   <g id="patch_6">
    <path clip-path="url(#pf30a471855)" d="M 81.53082 221.215748 
L 101.502188 221.215748 
L 101.502188 214.813278 
L 81.53082 214.813278 
z
" style="fill:#2219f0;fill-opacity:0.5;stroke:#ffffff;stroke-linejoin:miter;"/>
   </g>
   <g id="patch_7">
    <path clip-path="url(#pf30a471855)" d="M 101.502188 221.215748 
L 121.473555 221.215748 
L 121.473555 214.813278 
L 101.502188 214.813278 
z
" style="fill:#2219f0;fill-opacity:0.5;stroke:#ffffff;stroke-linejoin:miter;"/>
   </g>
   <g id="patch_8">
    <path clip-path="url(#pf30a471855)" d="M 121.473555 221.215748 
L 141.444922 221.215748 
L 141.444922 207.130314 
L 121.473555 207.130314 
z
" style="fill:#2219f0;fill-opacity:0.5;stroke:#ffffff;stroke-linejoin:miter;"/>
   </g>
   <g id="patch_9">
    <path clip-path="url(#pf30a471855)" d="M 141.444922 221.215748 
L 161.416289 221.215748 
L 161.416289 194.325373 
L 141.444922 194.325373 
z
" style="fill:#2219f0;fill-opacity:0.5;stroke:#ffffff;stroke-linejoin:miter;"/>
   </g>
   <g id="patch_10">
    <path clip-path="url(#pf30a471855)" d="M 161.416289 221.215748 
L 181.387656 221.215748 
L 181.387656 176.398457 
L 161.416289 176.398457 
z
" style="fill:#2219f0;fill-opacity:0.5;stroke:#ffffff;stroke-linejoin:miter;"/>
   </g>
   <g id="patch_11">
    <path clip-path="url(#pf30a471855)" d="M 181.387656 221.215748 
L 201.359024 221.215748 
L 201.359024 152.06907 
L 181.387656 152.06907 
z
" style="fill:#2219f0;fill-opacity:0.5;stroke:#ffffff;stroke-linejoin:miter;"/>
   </g>
   <g id="patch_12">
    <path clip-path="url(#pf30a471855)" d="M 201.359024 221.215748 
L 221.330391 221.215748 
L 221.330391 137.983635 
L 201.359024 137.983635 
z
" style="fill:#2219f0;fill-opacity:0.5;stroke:#ffffff;stroke-linejoin:miter;"/>
   </g>
   <g id="patch_13">
    <path clip-path="url(#pf30a471855)" d="M 221.330391 221.215748 
L 241.301758 221.215748 
L 241.301758 122.617707 
L 221.330391 122.617707 
z
" style="fill:#2219f0;fill-opacity:0.5;stroke:#ffffff;stroke-linejoin:miter;"/>
   </g>
   <g id="patch_14">
    <path clip-path="url(#pf30a471855)" d="M 241.301758 221.215748 
L 261.273125 221.215748 
L 261.273125 80.361404 
L 241.301758 80.361404 
z
" style="fill:#2219f0;fill-opacity:0.5;stroke:#ffffff;stroke-linejoin:miter;"/>
   </g>
   <g id="patch_15">
    <path clip-path="url(#pf30a471855)" d="M 261.273125 221.215748 
L 281.244492 221.215748 
L 281.244492 63.714981 
L 261.273125 63.714981 
z
" style="fill:#2219f0;fill-opacity:0.5;stroke:#ffffff;stroke-linejoin:miter;"/>
   </g>
   <g id="patch_16">
    <path clip-path="url(#pf30a471855)" d="M 281.244492 221.215748 
L 301.21586 221.215748 
L 301.21586 77.800416 
L 281.244492 77.800416 
z
" style="fill:#2219f0;fill-opacity:0.5;stroke:#ffffff;stroke-linejoin:miter;"/>
   </g>
   <g id="patch_17">
    <path clip-path="url(#pf30a471855)" d="M 301.21586 221.215748 
L 321.187227 221.215748 
L 321.187227 67.556463 
L 301.21586 67.556463 
z
" style="fill:#2219f0;fill-opacity:0.5;stroke:#ffffff;stroke-linejoin:miter;"/>
   </g>
   <g id="patch_18">
    <path clip-path="url(#pf30a471855)" d="M 321.187227 221.215748 
L 341.158594 221.215748 
L 341.158594 117.495731 
L 321.187227 117.495731 
z
" style="fill:#2219f0;fill-opacity:0.5;stroke:#ffffff;stroke-linejoin:miter;"/>
   </g>
   <g id="patch_19">
    <path clip-path="url(#pf30a471855)" d="M 341.158594 221.215748 
L 361.129961 221.215748 
L 361.129961 134.142153 
L 341.158594 134.142153 
z
" style="fill:#2219f0;fill-opacity:0.5;stroke:#ffffff;stroke-linejoin:miter;"/>
   </g>
   <g id="patch_20">
    <path clip-path="url(#pf30a471855)" d="M 361.129961 221.215748 
L 381.101329 221.215748 
L 381.101329 155.910552 
L 361.129961 155.910552 
z
" style="fill:#2219f0;fill-opacity:0.5;stroke:#ffffff;stroke-linejoin:miter;"/>
   </g>
   <g id="patch_21">
    <path clip-path="url(#pf30a471855)" d="M 381.101329 221.215748 
L 401.072696 221.215748 
L 401.072696 185.361915 
L 381.101329 185.361915 
z
" style="fill:#2219f0;fill-opacity:0.5;stroke:#ffffff;stroke-linejoin:miter;"/>
   </g>
   <g id="patch_22">
    <path clip-path="url(#pf30a471855)" d="M 401.072696 221.215748 
L 421.044063 221.215748 
L 421.044063 195.605867 
L 401.072696 195.605867 
z
" style="fill:#2219f0;fill-opacity:0.5;stroke:#ffffff;stroke-linejoin:miter;"/>
   </g>
   <g id="patch_23">
    <path clip-path="url(#pf30a471855)" d="M 421.044063 221.215748 
L 441.01543 221.215748 
L 441.01543 208.410808 
L 421.044063 208.410808 
z
" style="fill:#2219f0;fill-opacity:0.5;stroke:#ffffff;stroke-linejoin:miter;"/>
   </g>
   <g id="patch_24">
    <path clip-path="url(#pf30a471855)" d="M 441.01543 221.215748 
L 460.986797 221.215748 
L 460.986797 218.65476 
L 441.01543 218.65476 
z
" style="fill:#2219f0;fill-opacity:0.5;stroke:#ffffff;stroke-linejoin:miter;"/>
   </g>
   <g id="patch_25">
    <path clip-path="url(#pf30a471855)" d="M 460.986797 221.215748 
L 480.958165 221.215748 
L 480.958165 218.65476 
L 460.986797 218.65476 
z
" style="fill:#2219f0;fill-opacity:0.5;stroke:#ffffff;stroke-linejoin:miter;"/>
   </g>
   <g id="line2d_34">
    <path clip-path="url(#pf30a471855)" d="M 81.53082 217.809589 
L 101.602546 214.866925 
L 107.624064 213.710338 
L 111.638409 212.77122 
L 115.652754 211.672273 
L 119.667099 210.39898 
L 123.681445 208.939029 
L 127.69579 207.278581 
L 131.710135 205.400862 
L 135.72448 203.287672 
L 139.738825 200.922895 
L 143.75317 198.296348 
L 147.767516 195.40671 
L 151.781861 192.263316 
L 155.796206 188.88747 
L 161.817724 183.467789 
L 179.882277 166.612516 
L 185.903795 161.533499 
L 191.925312 156.815881 
L 199.954003 150.607119 
L 203.968348 147.243063 
L 207.982693 143.518959 
L 211.997038 139.320295 
L 216.011383 134.575186 
L 220.025729 129.268233 
L 224.040074 123.449637 
L 228.054419 117.237792 
L 240.097455 98.231844 
L 244.1118 92.539363 
L 248.126145 87.500255 
L 250.133317 85.265771 
L 252.14049 83.23458 
L 254.147663 81.411678 
L 256.154835 79.798412 
L 258.162008 78.392816 
L 260.16918 77.189961 
L 262.176353 76.182295 
L 264.183526 75.359949 
L 266.190698 74.711026 
L 268.197871 74.221891 
L 270.205043 73.877501 
L 272.212216 73.661798 
L 276.226561 73.550263 
L 280.240906 73.760314 
L 284.255251 74.191146 
L 288.269597 74.79282 
L 292.283942 75.583237 
L 296.298287 76.648854 
L 298.305459 77.326244 
L 300.312632 78.125348 
L 302.319805 79.064913 
L 304.326977 80.161853 
L 306.33415 81.430012 
L 308.341322 82.879148 
L 310.348495 84.514207 
L 312.355668 86.334951 
L 314.36284 88.335942 
L 318.377185 92.833185 
L 322.39153 97.877661 
L 326.405876 103.302527 
L 342.463256 125.621193 
L 346.477601 130.784179 
L 350.491947 135.646718 
L 354.506292 140.184214 
L 358.520637 144.402079 
L 362.534982 148.343136 
L 368.5565 153.924203 
L 376.58519 161.353176 
L 382.606708 167.322029 
L 388.628226 173.678681 
L 398.664089 184.376288 
L 402.678434 188.372392 
L 406.692779 192.081783 
L 410.707124 195.465407 
L 414.721469 198.514663 
L 418.735815 201.244793 
L 422.75016 203.687999 
L 426.764505 205.886732 
L 430.77885 207.88619 
L 436.800368 210.594105 
L 442.821886 213.006859 
L 448.843403 215.100513 
L 452.857748 216.280806 
L 456.872094 217.264842 
L 460.886439 218.047876 
L 464.900784 218.644245 
L 470.922302 219.260143 
L 478.950992 219.777131 
L 480.958165 219.882092 
L 480.958165 219.882092 
" style="fill:none;stroke:#2219f0;stroke-linecap:round;stroke-width:1.5;"/>
   </g>
   <g id="patch_26">
    <path d="M 61.559453 221.215748 
L 61.559453 55.839943 
" style="fill:none;stroke:#262626;stroke-linecap:square;stroke-linejoin:miter;stroke-width:1.25;"/>
   </g>
   <g id="patch_27">
    <path d="M 61.559453 221.215748 
L 500.929532 221.215748 
" style="fill:none;stroke:#262626;stroke-linecap:square;stroke-linejoin:miter;stroke-width:1.25;"/>
   </g>
  </g>
 </g>
 <defs>
  <clipPath id="pffc8fa1726">
   <rect height="29.183966" width="439.370079" x="61.559453" y="7.2"/>
  </clipPath>
  <clipPath id="pf30a471855">
   <rect height="165.375805" width="439.370079" x="61.559453" y="55.839943"/>
  </clipPath>
 </defs>
</svg>
