<?xml version="1.0" encoding="utf-8" standalone="no"?>
<!DOCTYPE svg PUBLIC "-//W3C//DTD SVG 1.1//EN"
  "http://www.w3.org/Graphics/SVG/1.1/DTD/svg11.dtd">
<!-- Created with matplotlib (https://matplotlib.org/) -->
<svg height="270.150904pt" version="1.1" viewBox="0 0 506.811485 270.150904" width="506.811485pt" xmlns="http://www.w3.org/2000/svg" xmlns:xlink="http://www.w3.org/1999/xlink">
 <metadata>
  <rdf:RDF xmlns:cc="http://creativecommons.org/ns#" xmlns:dc="http://purl.org/dc/elements/1.1/" xmlns:rdf="http://www.w3.org/1999/02/22-rdf-syntax-ns#">
   <cc:Work>
    <dc:type rdf:resource="http://purl.org/dc/dcmitype/StillImage"/>
    <dc:date>2023-02-18T18:09:36.882514</dc:date>
    <dc:format>image/svg+xml</dc:format>
    <dc:creator>
     <cc:Agent>
      <dc:title>Matplotlib v3.3.4, https://matplotlib.org/</dc:title>
     </cc:Agent>
    </dc:creator>
   </cc:Work>
  </rdf:RDF>
 </metadata>
 <defs>
  <style type="text/css">*{stroke-linecap:butt;stroke-linejoin:round;}</style>
 </defs>
 <g id="figure_1">
  <g id="patch_1">
   <path d="M -0 270.150904 
L 506.811485 270.150904 
L 506.811485 0 
L -0 0 
z
" style="fill:none;"/>
  </g>
  <g id="axes_1">
   <g id="patch_2">
    <path d="M 60.241406 36.383966 
L 499.611485 36.383966 
L 499.611485 7.2 
L 60.241406 7.2 
z
" style="fill:none;"/>
   </g>
   <g id="matplotlib.axis_1">
    <g id="xtick_1">
     <g id="line2d_1">
      <defs>
       <path d="M 0 0 
L 0 6 
" id="ma94f506e11" style="stroke:#262626;stroke-width:1.25;"/>
      </defs>
      <g>
       <use style="fill:#262626;stroke:#262626;stroke-width:1.25;" x="61.067473" xlink:href="#ma94f506e11" y="36.383966"/>
      </g>
     </g>
    </g>
    <g id="xtick_2">
     <g id="line2d_2">
      <g>
       <use style="fill:#262626;stroke:#262626;stroke-width:1.25;" x="132.217265" xlink:href="#ma94f506e11" y="36.383966"/>
      </g>
     </g>
    </g>
    <g id="xtick_3">
     <g id="line2d_3">
      <g>
       <use style="fill:#262626;stroke:#262626;stroke-width:1.25;" x="203.367057" xlink:href="#ma94f506e11" y="36.383966"/>
      </g>
     </g>
    </g>
    <g id="xtick_4">
     <g id="line2d_4">
      <g>
       <use style="fill:#262626;stroke:#262626;stroke-width:1.25;" x="274.516849" xlink:href="#ma94f506e11" y="36.383966"/>
      </g>
     </g>
    </g>
    <g id="xtick_5">
     <g id="line2d_5">
      <g>
       <use style="fill:#262626;stroke:#262626;stroke-width:1.25;" x="345.66664" xlink:href="#ma94f506e11" y="36.383966"/>
      </g>
     </g>
    </g>
    <g id="xtick_6">
     <g id="line2d_6">
      <g>
       <use style="fill:#262626;stroke:#262626;stroke-width:1.25;" x="416.816432" xlink:href="#ma94f506e11" y="36.383966"/>
      </g>
     </g>
    </g>
    <g id="xtick_7">
     <g id="line2d_7">
      <g>
       <use style="fill:#262626;stroke:#262626;stroke-width:1.25;" x="487.966224" xlink:href="#ma94f506e11" y="36.383966"/>
      </g>
     </g>
    </g>
   </g>
   <g id="matplotlib.axis_2"/>
   <g id="patch_3">
    <path clip-path="url(#pa234b4250b)" d="M 235.836517 10.118397 
L 235.836517 33.465569 
L 323.776897 33.465569 
L 323.776897 10.118397 
L 235.836517 10.118397 
z
" style="fill:#7c1c23;stroke:#2e2e2e;stroke-linejoin:miter;stroke-width:1.5;"/>
   </g>
   <g id="line2d_8">
    <path clip-path="url(#pa234b4250b)" d="M 235.836517 21.791983 
L 116.334913 21.791983 
" style="fill:none;stroke:#2e2e2e;stroke-linecap:round;stroke-width:1.5;"/>
   </g>
   <g id="line2d_9">
    <path clip-path="url(#pa234b4250b)" d="M 323.776897 21.791983 
L 444.288228 21.791983 
" style="fill:none;stroke:#2e2e2e;stroke-linecap:round;stroke-width:1.5;"/>
   </g>
   <g id="line2d_10">
    <path clip-path="url(#pa234b4250b)" d="M 116.334913 15.95519 
L 116.334913 27.628776 
" style="fill:none;stroke:#2e2e2e;stroke-linecap:round;stroke-width:1.5;"/>
   </g>
   <g id="line2d_11">
    <path clip-path="url(#pa234b4250b)" d="M 444.288228 15.95519 
L 444.288228 27.628776 
" style="fill:none;stroke:#2e2e2e;stroke-linecap:round;stroke-width:1.5;"/>
   </g>
   <g id="line2d_12">
    <defs>
     <path d="M 0 3.535534 
L 2.12132 0 
L 0 -3.535534 
L -2.12132 0 
z
" id="m5f57296bd2" style="stroke:#2e2e2e;stroke-linejoin:miter;"/>
    </defs>
    <g clip-path="url(#pa234b4250b)">
     <use style="fill:#2e2e2e;stroke:#2e2e2e;stroke-linejoin:miter;" x="85.073788" xlink:href="#m5f57296bd2" y="21.791983"/>
     <use style="fill:#2e2e2e;stroke:#2e2e2e;stroke-linejoin:miter;" x="80.212773" xlink:href="#m5f57296bd2" y="21.791983"/>
     <use style="fill:#2e2e2e;stroke:#2e2e2e;stroke-linejoin:miter;" x="102.370058" xlink:href="#m5f57296bd2" y="21.791983"/>
     <use style="fill:#2e2e2e;stroke:#2e2e2e;stroke-linejoin:miter;" x="86.072387" xlink:href="#m5f57296bd2" y="21.791983"/>
     <use style="fill:#2e2e2e;stroke:#2e2e2e;stroke-linejoin:miter;" x="89.816398" xlink:href="#m5f57296bd2" y="21.791983"/>
     <use style="fill:#2e2e2e;stroke:#2e2e2e;stroke-linejoin:miter;" x="99.850432" xlink:href="#m5f57296bd2" y="21.791983"/>
     <use style="fill:#2e2e2e;stroke:#2e2e2e;stroke-linejoin:miter;" x="101.30734" xlink:href="#m5f57296bd2" y="21.791983"/>
     <use style="fill:#2e2e2e;stroke:#2e2e2e;stroke-linejoin:miter;" x="479.640118" xlink:href="#m5f57296bd2" y="21.791983"/>
     <use style="fill:#2e2e2e;stroke:#2e2e2e;stroke-linejoin:miter;" x="469.378905" xlink:href="#m5f57296bd2" y="21.791983"/>
    </g>
   </g>
   <g id="line2d_13">
    <path clip-path="url(#pa234b4250b)" d="M 278.602606 10.118397 
L 278.602606 33.465569 
" style="fill:none;stroke:#2e2e2e;stroke-linecap:round;stroke-width:1.5;"/>
   </g>
   <g id="patch_4">
    <path d="M 60.241406 36.383966 
L 499.611485 36.383966 
" style="fill:none;stroke:#262626;stroke-linecap:square;stroke-linejoin:miter;stroke-width:1.25;"/>
   </g>
  </g>
  <g id="axes_2">
   <g id="patch_5">
    <path d="M 60.241406 221.215748 
L 499.611485 221.215748 
L 499.611485 55.839943 
L 60.241406 55.839943 
z
" style="fill:none;"/>
   </g>
   <g id="matplotlib.axis_3">
    <g id="xtick_8">
     <g id="line2d_14">
      <path clip-path="url(#p4cf69c77a1)" d="M 61.067473 221.215748 
L 61.067473 55.839943 
" style="fill:none;stroke:#cccccc;stroke-linecap:round;"/>
     </g>
     <g id="line2d_15">
      <defs>
       <path d="M 0 0 
L 0 6 
" id="m5643a5120a" style="stroke:#000000;stroke-width:1.25;"/>
      </defs>
      <g>
       <use style="stroke:#000000;stroke-width:1.25;" x="61.067473" xlink:href="#m5643a5120a" y="221.215748"/>
      </g>
     </g>
     <g id="text_1">
      <!-- −3 -->
      <g transform="translate(52.516301 241.452467)scale(0.15 -0.15)">
       <defs>
        <path d="M 52.828125 31.203125 
L 5.5625 31.203125 
L 5.5625 39.40625 
L 52.828125 39.40625 
z
" id="ArialMT-8722"/>
        <path d="M 4.203125 18.890625 
L 12.984375 20.0625 
Q 14.5 12.59375 18.140625 9.296875 
Q 21.78125 6 27 6 
Q 33.203125 6 37.46875 10.296875 
Q 41.75 14.59375 41.75 20.953125 
Q 41.75 27 37.796875 30.921875 
Q 33.84375 34.859375 27.734375 34.859375 
Q 25.25 34.859375 21.53125 33.890625 
L 22.515625 41.609375 
Q 23.390625 41.5 23.921875 41.5 
Q 29.546875 41.5 34.03125 44.421875 
Q 38.53125 47.359375 38.53125 53.46875 
Q 38.53125 58.296875 35.25 61.46875 
Q 31.984375 64.65625 26.8125 64.65625 
Q 21.6875 64.65625 18.265625 61.421875 
Q 14.84375 58.203125 13.875 51.765625 
L 5.078125 53.328125 
Q 6.6875 62.15625 12.390625 67.015625 
Q 18.109375 71.875 26.609375 71.875 
Q 32.46875 71.875 37.390625 69.359375 
Q 42.328125 66.84375 44.9375 62.5 
Q 47.5625 58.15625 47.5625 53.265625 
Q 47.5625 48.640625 45.0625 44.828125 
Q 42.578125 41.015625 37.703125 38.765625 
Q 44.046875 37.3125 47.5625 32.6875 
Q 51.078125 28.078125 51.078125 21.140625 
Q 51.078125 11.765625 44.234375 5.25 
Q 37.40625 -1.265625 26.953125 -1.265625 
Q 17.53125 -1.265625 11.296875 4.34375 
Q 5.078125 9.96875 4.203125 18.890625 
z
" id="ArialMT-51"/>
       </defs>
       <use xlink:href="#ArialMT-8722"/>
       <use x="58.398438" xlink:href="#ArialMT-51"/>
      </g>
     </g>
    </g>
    <g id="xtick_9">
     <g id="line2d_16">
      <path clip-path="url(#p4cf69c77a1)" d="M 132.217265 221.215748 
L 132.217265 55.839943 
" style="fill:none;stroke:#cccccc;stroke-linecap:round;"/>
     </g>
     <g id="line2d_17">
      <g>
       <use style="stroke:#000000;stroke-width:1.25;" x="132.217265" xlink:href="#m5643a5120a" y="221.215748"/>
      </g>
     </g>
     <g id="text_2">
      <!-- −2 -->
      <g transform="translate(123.666093 241.452467)scale(0.15 -0.15)">
       <defs>
        <path d="M 50.34375 8.453125 
L 50.34375 0 
L 3.03125 0 
Q 2.9375 3.171875 4.046875 6.109375 
Q 5.859375 10.9375 9.828125 15.625 
Q 13.8125 20.3125 21.34375 26.46875 
Q 33.015625 36.03125 37.109375 41.625 
Q 41.21875 47.21875 41.21875 52.203125 
Q 41.21875 57.421875 37.46875 61 
Q 33.734375 64.59375 27.734375 64.59375 
Q 21.390625 64.59375 17.578125 60.78125 
Q 13.765625 56.984375 13.71875 50.25 
L 4.6875 51.171875 
Q 5.609375 61.28125 11.65625 66.578125 
Q 17.71875 71.875 27.9375 71.875 
Q 38.234375 71.875 44.234375 66.15625 
Q 50.25 60.453125 50.25 52 
Q 50.25 47.703125 48.484375 43.546875 
Q 46.734375 39.40625 42.65625 34.8125 
Q 38.578125 30.21875 29.109375 22.21875 
Q 21.1875 15.578125 18.9375 13.203125 
Q 16.703125 10.84375 15.234375 8.453125 
z
" id="ArialMT-50"/>
       </defs>
       <use xlink:href="#ArialMT-8722"/>
       <use x="58.398438" xlink:href="#ArialMT-50"/>
      </g>
     </g>
    </g>
    <g id="xtick_10">
     <g id="line2d_18">
      <path clip-path="url(#p4cf69c77a1)" d="M 203.367057 221.215748 
L 203.367057 55.839943 
" style="fill:none;stroke:#cccccc;stroke-linecap:round;"/>
     </g>
     <g id="line2d_19">
      <g>
       <use style="stroke:#000000;stroke-width:1.25;" x="203.367057" xlink:href="#m5643a5120a" y="221.215748"/>
      </g>
     </g>
     <g id="text_3">
      <!-- −1 -->
      <g transform="translate(194.815885 241.452467)scale(0.15 -0.15)">
       <defs>
        <path d="M 37.25 0 
L 28.46875 0 
L 28.46875 56 
Q 25.296875 52.984375 20.140625 49.953125 
Q 14.984375 46.921875 10.890625 45.40625 
L 10.890625 53.90625 
Q 18.265625 57.375 23.78125 62.296875 
Q 29.296875 67.234375 31.59375 71.875 
L 37.25 71.875 
z
" id="ArialMT-49"/>
       </defs>
       <use xlink:href="#ArialMT-8722"/>
       <use x="58.398438" xlink:href="#ArialMT-49"/>
      </g>
     </g>
    </g>
    <g id="xtick_11">
     <g id="line2d_20">
      <path clip-path="url(#p4cf69c77a1)" d="M 274.516849 221.215748 
L 274.516849 55.839943 
" style="fill:none;stroke:#cccccc;stroke-linecap:round;"/>
     </g>
     <g id="line2d_21">
      <g>
       <use style="stroke:#000000;stroke-width:1.25;" x="274.516849" xlink:href="#m5643a5120a" y="221.215748"/>
      </g>
     </g>
     <g id="text_4">
      <!-- 0 -->
      <g transform="translate(270.346145 241.452467)scale(0.15 -0.15)">
       <defs>
        <path d="M 4.15625 35.296875 
Q 4.15625 48 6.765625 55.734375 
Q 9.375 63.484375 14.515625 67.671875 
Q 19.671875 71.875 27.484375 71.875 
Q 33.25 71.875 37.59375 69.546875 
Q 41.9375 67.234375 44.765625 62.859375 
Q 47.609375 58.5 49.21875 52.21875 
Q 50.828125 45.953125 50.828125 35.296875 
Q 50.828125 22.703125 48.234375 14.96875 
Q 45.65625 7.234375 40.5 3 
Q 35.359375 -1.21875 27.484375 -1.21875 
Q 17.140625 -1.21875 11.234375 6.203125 
Q 4.15625 15.140625 4.15625 35.296875 
z
M 13.1875 35.296875 
Q 13.1875 17.671875 17.3125 11.828125 
Q 21.4375 6 27.484375 6 
Q 33.546875 6 37.671875 11.859375 
Q 41.796875 17.71875 41.796875 35.296875 
Q 41.796875 52.984375 37.671875 58.78125 
Q 33.546875 64.59375 27.390625 64.59375 
Q 21.34375 64.59375 17.71875 59.46875 
Q 13.1875 52.9375 13.1875 35.296875 
z
" id="ArialMT-48"/>
       </defs>
       <use xlink:href="#ArialMT-48"/>
      </g>
     </g>
    </g>
    <g id="xtick_12">
     <g id="line2d_22">
      <path clip-path="url(#p4cf69c77a1)" d="M 345.66664 221.215748 
L 345.66664 55.839943 
" style="fill:none;stroke:#cccccc;stroke-linecap:round;"/>
     </g>
     <g id="line2d_23">
      <g>
       <use style="stroke:#000000;stroke-width:1.25;" x="345.66664" xlink:href="#m5643a5120a" y="221.215748"/>
      </g>
     </g>
     <g id="text_5">
      <!-- 1 -->
      <g transform="translate(341.495937 241.452467)scale(0.15 -0.15)">
       <use xlink:href="#ArialMT-49"/>
      </g>
     </g>
    </g>
    <g id="xtick_13">
     <g id="line2d_24">
      <path clip-path="url(#p4cf69c77a1)" d="M 416.816432 221.215748 
L 416.816432 55.839943 
" style="fill:none;stroke:#cccccc;stroke-linecap:round;"/>
     </g>
     <g id="line2d_25">
      <g>
       <use style="stroke:#000000;stroke-width:1.25;" x="416.816432" xlink:href="#m5643a5120a" y="221.215748"/>
      </g>
     </g>
     <g id="text_6">
      <!-- 2 -->
      <g transform="translate(412.645729 241.452467)scale(0.15 -0.15)">
       <use xlink:href="#ArialMT-50"/>
      </g>
     </g>
    </g>
    <g id="xtick_14">
     <g id="line2d_26">
      <path clip-path="url(#p4cf69c77a1)" d="M 487.966224 221.215748 
L 487.966224 55.839943 
" style="fill:none;stroke:#cccccc;stroke-linecap:round;"/>
     </g>
     <g id="line2d_27">
      <g>
       <use style="stroke:#000000;stroke-width:1.25;" x="487.966224" xlink:href="#m5643a5120a" y="221.215748"/>
      </g>
     </g>
     <g id="text_7">
      <!-- 3 -->
      <g transform="translate(483.795521 241.452467)scale(0.15 -0.15)">
       <use xlink:href="#ArialMT-51"/>
      </g>
     </g>
    </g>
    <g id="text_8">
     <!-- $x_{1}$ -->
     <g transform="translate(271.901446 259.831373)scale(0.15 -0.15)">
      <defs>
       <path d="M 60.015625 54.6875 
L 34.90625 27.875 
L 50.296875 0 
L 39.984375 0 
L 28.421875 21.6875 
L 8.296875 0 
L -2.59375 0 
L 24.3125 28.8125 
L 10.015625 54.6875 
L 20.3125 54.6875 
L 30.8125 34.90625 
L 49.125 54.6875 
z
" id="DejaVuSans-Oblique-120"/>
       <path d="M 12.40625 8.296875 
L 28.515625 8.296875 
L 28.515625 63.921875 
L 10.984375 60.40625 
L 10.984375 69.390625 
L 28.421875 72.90625 
L 38.28125 72.90625 
L 38.28125 8.296875 
L 54.390625 8.296875 
L 54.390625 0 
L 12.40625 0 
z
" id="DejaVuSans-49"/>
      </defs>
      <use transform="translate(0 0.3125)" xlink:href="#DejaVuSans-Oblique-120"/>
      <use transform="translate(59.179688 -16.09375)scale(0.7)" xlink:href="#DejaVuSans-49"/>
     </g>
    </g>
   </g>
   <g id="matplotlib.axis_4">
    <g id="ytick_1">
     <g id="line2d_28">
      <path clip-path="url(#p4cf69c77a1)" d="M 60.241406 221.215748 
L 499.611485 221.215748 
" style="fill:none;stroke:#cccccc;stroke-linecap:round;"/>
     </g>
     <g id="line2d_29">
      <defs>
       <path d="M 0 0 
L -6 0 
" id="mc5d8f79cab" style="stroke:#000000;stroke-width:1.25;"/>
      </defs>
      <g>
       <use style="stroke:#000000;stroke-width:1.25;" x="60.241406" xlink:href="#mc5d8f79cab" y="221.215748"/>
      </g>
     </g>
     <g id="text_9">
      <!-- 0 -->
      <g transform="translate(42.4 226.584107)scale(0.15 -0.15)">
       <use xlink:href="#ArialMT-48"/>
      </g>
     </g>
    </g>
    <g id="ytick_2">
     <g id="line2d_30">
      <path clip-path="url(#p4cf69c77a1)" d="M 60.241406 157.191046 
L 499.611485 157.191046 
" style="fill:none;stroke:#cccccc;stroke-linecap:round;"/>
     </g>
     <g id="line2d_31">
      <g>
       <use style="stroke:#000000;stroke-width:1.25;" x="60.241406" xlink:href="#mc5d8f79cab" y="157.191046"/>
      </g>
     </g>
     <g id="text_10">
      <!-- 50 -->
      <g transform="translate(34.058594 162.559405)scale(0.15 -0.15)">
       <defs>
        <path d="M 4.15625 18.75 
L 13.375 19.53125 
Q 14.40625 12.796875 18.140625 9.390625 
Q 21.875 6 27.15625 6 
Q 33.5 6 37.890625 10.78125 
Q 42.28125 15.578125 42.28125 23.484375 
Q 42.28125 31 38.0625 35.34375 
Q 33.84375 39.703125 27 39.703125 
Q 22.75 39.703125 19.328125 37.765625 
Q 15.921875 35.84375 13.96875 32.765625 
L 5.71875 33.84375 
L 12.640625 70.609375 
L 48.25 70.609375 
L 48.25 62.203125 
L 19.671875 62.203125 
L 15.828125 42.96875 
Q 22.265625 47.46875 29.34375 47.46875 
Q 38.71875 47.46875 45.15625 40.96875 
Q 51.609375 34.46875 51.609375 24.265625 
Q 51.609375 14.546875 45.953125 7.46875 
Q 39.0625 -1.21875 27.15625 -1.21875 
Q 17.390625 -1.21875 11.203125 4.25 
Q 5.03125 9.71875 4.15625 18.75 
z
" id="ArialMT-53"/>
       </defs>
       <use xlink:href="#ArialMT-53"/>
       <use x="55.615234" xlink:href="#ArialMT-48"/>
      </g>
     </g>
    </g>
    <g id="ytick_3">
     <g id="line2d_32">
      <path clip-path="url(#p4cf69c77a1)" d="M 60.241406 93.166344 
L 499.611485 93.166344 
" style="fill:none;stroke:#cccccc;stroke-linecap:round;"/>
     </g>
     <g id="line2d_33">
      <g>
       <use style="stroke:#000000;stroke-width:1.25;" x="60.241406" xlink:href="#mc5d8f79cab" y="93.166344"/>
      </g>
     </g>
     <g id="text_11">
      <!-- 100 -->
      <g transform="translate(25.717188 98.534703)scale(0.15 -0.15)">
       <use xlink:href="#ArialMT-49"/>
       <use x="55.615234" xlink:href="#ArialMT-48"/>
       <use x="111.230469" xlink:href="#ArialMT-48"/>
      </g>
     </g>
    </g>
    <g id="text_12">
     <!-- Frequency -->
     <g transform="translate(18.597656 177.272377)rotate(-90)scale(0.15 -0.15)">
      <defs>
       <path d="M 9.8125 72.90625 
L 51.703125 72.90625 
L 51.703125 64.59375 
L 19.671875 64.59375 
L 19.671875 43.109375 
L 48.578125 43.109375 
L 48.578125 34.8125 
L 19.671875 34.8125 
L 19.671875 0 
L 9.8125 0 
z
" id="DejaVuSans-70"/>
       <path d="M 41.109375 46.296875 
Q 39.59375 47.171875 37.8125 47.578125 
Q 36.03125 48 33.890625 48 
Q 26.265625 48 22.1875 43.046875 
Q 18.109375 38.09375 18.109375 28.8125 
L 18.109375 0 
L 9.078125 0 
L 9.078125 54.6875 
L 18.109375 54.6875 
L 18.109375 46.1875 
Q 20.953125 51.171875 25.484375 53.578125 
Q 30.03125 56 36.53125 56 
Q 37.453125 56 38.578125 55.875 
Q 39.703125 55.765625 41.0625 55.515625 
z
" id="DejaVuSans-114"/>
       <path d="M 56.203125 29.59375 
L 56.203125 25.203125 
L 14.890625 25.203125 
Q 15.484375 15.921875 20.484375 11.0625 
Q 25.484375 6.203125 34.421875 6.203125 
Q 39.59375 6.203125 44.453125 7.46875 
Q 49.3125 8.734375 54.109375 11.28125 
L 54.109375 2.78125 
Q 49.265625 0.734375 44.1875 -0.34375 
Q 39.109375 -1.421875 33.890625 -1.421875 
Q 20.796875 -1.421875 13.15625 6.1875 
Q 5.515625 13.8125 5.515625 26.8125 
Q 5.515625 40.234375 12.765625 48.109375 
Q 20.015625 56 32.328125 56 
Q 43.359375 56 49.78125 48.890625 
Q 56.203125 41.796875 56.203125 29.59375 
z
M 47.21875 32.234375 
Q 47.125 39.59375 43.09375 43.984375 
Q 39.0625 48.390625 32.421875 48.390625 
Q 24.90625 48.390625 20.390625 44.140625 
Q 15.875 39.890625 15.1875 32.171875 
z
" id="DejaVuSans-101"/>
       <path d="M 14.796875 27.296875 
Q 14.796875 17.390625 18.875 11.75 
Q 22.953125 6.109375 30.078125 6.109375 
Q 37.203125 6.109375 41.296875 11.75 
Q 45.40625 17.390625 45.40625 27.296875 
Q 45.40625 37.203125 41.296875 42.84375 
Q 37.203125 48.484375 30.078125 48.484375 
Q 22.953125 48.484375 18.875 42.84375 
Q 14.796875 37.203125 14.796875 27.296875 
z
M 45.40625 8.203125 
Q 42.578125 3.328125 38.25 0.953125 
Q 33.9375 -1.421875 27.875 -1.421875 
Q 17.96875 -1.421875 11.734375 6.484375 
Q 5.515625 14.40625 5.515625 27.296875 
Q 5.515625 40.1875 11.734375 48.09375 
Q 17.96875 56 27.875 56 
Q 33.9375 56 38.25 53.625 
Q 42.578125 51.265625 45.40625 46.390625 
L 45.40625 54.6875 
L 54.390625 54.6875 
L 54.390625 -20.796875 
L 45.40625 -20.796875 
z
" id="DejaVuSans-113"/>
       <path d="M 8.5 21.578125 
L 8.5 54.6875 
L 17.484375 54.6875 
L 17.484375 21.921875 
Q 17.484375 14.15625 20.5 10.265625 
Q 23.53125 6.390625 29.59375 6.390625 
Q 36.859375 6.390625 41.078125 11.03125 
Q 45.3125 15.671875 45.3125 23.6875 
L 45.3125 54.6875 
L 54.296875 54.6875 
L 54.296875 0 
L 45.3125 0 
L 45.3125 8.40625 
Q 42.046875 3.421875 37.71875 1 
Q 33.40625 -1.421875 27.6875 -1.421875 
Q 18.265625 -1.421875 13.375 4.4375 
Q 8.5 10.296875 8.5 21.578125 
z
M 31.109375 56 
z
" id="DejaVuSans-117"/>
       <path d="M 54.890625 33.015625 
L 54.890625 0 
L 45.90625 0 
L 45.90625 32.71875 
Q 45.90625 40.484375 42.875 44.328125 
Q 39.84375 48.1875 33.796875 48.1875 
Q 26.515625 48.1875 22.3125 43.546875 
Q 18.109375 38.921875 18.109375 30.90625 
L 18.109375 0 
L 9.078125 0 
L 9.078125 54.6875 
L 18.109375 54.6875 
L 18.109375 46.1875 
Q 21.34375 51.125 25.703125 53.5625 
Q 30.078125 56 35.796875 56 
Q 45.21875 56 50.046875 50.171875 
Q 54.890625 44.34375 54.890625 33.015625 
z
" id="DejaVuSans-110"/>
       <path d="M 48.78125 52.59375 
L 48.78125 44.1875 
Q 44.96875 46.296875 41.140625 47.34375 
Q 37.3125 48.390625 33.40625 48.390625 
Q 24.65625 48.390625 19.8125 42.84375 
Q 14.984375 37.3125 14.984375 27.296875 
Q 14.984375 17.28125 19.8125 11.734375 
Q 24.65625 6.203125 33.40625 6.203125 
Q 37.3125 6.203125 41.140625 7.25 
Q 44.96875 8.296875 48.78125 10.40625 
L 48.78125 2.09375 
Q 45.015625 0.34375 40.984375 -0.53125 
Q 36.96875 -1.421875 32.421875 -1.421875 
Q 20.0625 -1.421875 12.78125 6.34375 
Q 5.515625 14.109375 5.515625 27.296875 
Q 5.515625 40.671875 12.859375 48.328125 
Q 20.21875 56 33.015625 56 
Q 37.15625 56 41.109375 55.140625 
Q 45.0625 54.296875 48.78125 52.59375 
z
" id="DejaVuSans-99"/>
       <path d="M 32.171875 -5.078125 
Q 28.375 -14.84375 24.75 -17.8125 
Q 21.140625 -20.796875 15.09375 -20.796875 
L 7.90625 -20.796875 
L 7.90625 -13.28125 
L 13.1875 -13.28125 
Q 16.890625 -13.28125 18.9375 -11.515625 
Q 21 -9.765625 23.484375 -3.21875 
L 25.09375 0.875 
L 2.984375 54.6875 
L 12.5 54.6875 
L 29.59375 11.921875 
L 46.6875 54.6875 
L 56.203125 54.6875 
z
" id="DejaVuSans-121"/>
      </defs>
      <use xlink:href="#DejaVuSans-70"/>
      <use x="50.269531" xlink:href="#DejaVuSans-114"/>
      <use x="89.132812" xlink:href="#DejaVuSans-101"/>
      <use x="150.65625" xlink:href="#DejaVuSans-113"/>
      <use x="214.132812" xlink:href="#DejaVuSans-117"/>
      <use x="277.511719" xlink:href="#DejaVuSans-101"/>
      <use x="339.035156" xlink:href="#DejaVuSans-110"/>
      <use x="402.414062" xlink:href="#DejaVuSans-99"/>
      <use x="457.394531" xlink:href="#DejaVuSans-121"/>
     </g>
    </g>
   </g>
   <g id="patch_6">
    <path clip-path="url(#p4cf69c77a1)" d="M 80.212773 221.215748 
L 100.184141 221.215748 
L 100.184141 214.813278 
L 80.212773 214.813278 
z
" style="fill:#8c0c15;fill-opacity:0.5;stroke:#ffffff;stroke-linejoin:miter;"/>
   </g>
   <g id="patch_7">
    <path clip-path="url(#p4cf69c77a1)" d="M 100.184141 221.215748 
L 120.155508 221.215748 
L 120.155508 214.813278 
L 100.184141 214.813278 
z
" style="fill:#8c0c15;fill-opacity:0.5;stroke:#ffffff;stroke-linejoin:miter;"/>
   </g>
   <g id="patch_8">
    <path clip-path="url(#p4cf69c77a1)" d="M 120.155508 221.215748 
L 140.126875 221.215748 
L 140.126875 207.130314 
L 120.155508 207.130314 
z
" style="fill:#8c0c15;fill-opacity:0.5;stroke:#ffffff;stroke-linejoin:miter;"/>
   </g>
   <g id="patch_9">
    <path clip-path="url(#p4cf69c77a1)" d="M 140.126875 221.215748 
L 160.098242 221.215748 
L 160.098242 194.325373 
L 140.126875 194.325373 
z
" style="fill:#8c0c15;fill-opacity:0.5;stroke:#ffffff;stroke-linejoin:miter;"/>
   </g>
   <g id="patch_10">
    <path clip-path="url(#p4cf69c77a1)" d="M 160.098242 221.215748 
L 180.06961 221.215748 
L 180.06961 176.398457 
L 160.098242 176.398457 
z
" style="fill:#8c0c15;fill-opacity:0.5;stroke:#ffffff;stroke-linejoin:miter;"/>
   </g>
   <g id="patch_11">
    <path clip-path="url(#p4cf69c77a1)" d="M 180.06961 221.215748 
L 200.040977 221.215748 
L 200.040977 152.06907 
L 180.06961 152.06907 
z
" style="fill:#8c0c15;fill-opacity:0.5;stroke:#ffffff;stroke-linejoin:miter;"/>
   </g>
   <g id="patch_12">
    <path clip-path="url(#p4cf69c77a1)" d="M 200.040977 221.215748 
L 220.012344 221.215748 
L 220.012344 137.983635 
L 200.040977 137.983635 
z
" style="fill:#8c0c15;fill-opacity:0.5;stroke:#ffffff;stroke-linejoin:miter;"/>
   </g>
   <g id="patch_13">
    <path clip-path="url(#p4cf69c77a1)" d="M 220.012344 221.215748 
L 239.983711 221.215748 
L 239.983711 122.617707 
L 220.012344 122.617707 
z
" style="fill:#8c0c15;fill-opacity:0.5;stroke:#ffffff;stroke-linejoin:miter;"/>
   </g>
   <g id="patch_14">
    <path clip-path="url(#p4cf69c77a1)" d="M 239.983711 221.215748 
L 259.955078 221.215748 
L 259.955078 80.361404 
L 239.983711 80.361404 
z
" style="fill:#8c0c15;fill-opacity:0.5;stroke:#ffffff;stroke-linejoin:miter;"/>
   </g>
   <g id="patch_15">
    <path clip-path="url(#p4cf69c77a1)" d="M 259.955078 221.215748 
L 279.926446 221.215748 
L 279.926446 63.714981 
L 259.955078 63.714981 
z
" style="fill:#8c0c15;fill-opacity:0.5;stroke:#ffffff;stroke-linejoin:miter;"/>
   </g>
   <g id="patch_16">
    <path clip-path="url(#p4cf69c77a1)" d="M 279.926446 221.215748 
L 299.897813 221.215748 
L 299.897813 77.800416 
L 279.926446 77.800416 
z
" style="fill:#8c0c15;fill-opacity:0.5;stroke:#ffffff;stroke-linejoin:miter;"/>
   </g>
   <g id="patch_17">
    <path clip-path="url(#p4cf69c77a1)" d="M 299.897813 221.215748 
L 319.86918 221.215748 
L 319.86918 67.556463 
L 299.897813 67.556463 
z
" style="fill:#8c0c15;fill-opacity:0.5;stroke:#ffffff;stroke-linejoin:miter;"/>
   </g>
   <g id="patch_18">
    <path clip-path="url(#p4cf69c77a1)" d="M 319.86918 221.215748 
L 339.840547 221.215748 
L 339.840547 117.495731 
L 319.86918 117.495731 
z
" style="fill:#8c0c15;fill-opacity:0.5;stroke:#ffffff;stroke-linejoin:miter;"/>
   </g>
   <g id="patch_19">
    <path clip-path="url(#p4cf69c77a1)" d="M 339.840547 221.215748 
L 359.811914 221.215748 
L 359.811914 134.142153 
L 339.840547 134.142153 
z
" style="fill:#8c0c15;fill-opacity:0.5;stroke:#ffffff;stroke-linejoin:miter;"/>
   </g>
   <g id="patch_20">
    <path clip-path="url(#p4cf69c77a1)" d="M 359.811914 221.215748 
L 379.783282 221.215748 
L 379.783282 155.910552 
L 359.811914 155.910552 
z
" style="fill:#8c0c15;fill-opacity:0.5;stroke:#ffffff;stroke-linejoin:miter;"/>
   </g>
   <g id="patch_21">
    <path clip-path="url(#p4cf69c77a1)" d="M 379.783282 221.215748 
L 399.754649 221.215748 
L 399.754649 185.361915 
L 379.783282 185.361915 
z
" style="fill:#8c0c15;fill-opacity:0.5;stroke:#ffffff;stroke-linejoin:miter;"/>
   </g>
   <g id="patch_22">
    <path clip-path="url(#p4cf69c77a1)" d="M 399.754649 221.215748 
L 419.726016 221.215748 
L 419.726016 195.605867 
L 399.754649 195.605867 
z
" style="fill:#8c0c15;fill-opacity:0.5;stroke:#ffffff;stroke-linejoin:miter;"/>
   </g>
   <g id="patch_23">
    <path clip-path="url(#p4cf69c77a1)" d="M 419.726016 221.215748 
L 439.697383 221.215748 
L 439.697383 208.410808 
L 419.726016 208.410808 
z
" style="fill:#8c0c15;fill-opacity:0.5;stroke:#ffffff;stroke-linejoin:miter;"/>
   </g>
   <g id="patch_24">
    <path clip-path="url(#p4cf69c77a1)" d="M 439.697383 221.215748 
L 459.668751 221.215748 
L 459.668751 218.65476 
L 439.697383 218.65476 
z
" style="fill:#8c0c15;fill-opacity:0.5;stroke:#ffffff;stroke-linejoin:miter;"/>
   </g>
   <g id="patch_25">
    <path clip-path="url(#p4cf69c77a1)" d="M 459.668751 221.215748 
L 479.640118 221.215748 
L 479.640118 218.65476 
L 459.668751 218.65476 
z
" style="fill:#8c0c15;fill-opacity:0.5;stroke:#ffffff;stroke-linejoin:miter;"/>
   </g>
   <g id="line2d_34">
    <path clip-path="url(#p4cf69c77a1)" d="M 80.212773 217.809589 
L 100.284499 214.866925 
L 106.306017 213.710338 
L 110.320362 212.77122 
L 114.334707 211.672273 
L 118.349053 210.39898 
L 122.363398 208.939029 
L 126.377743 207.278581 
L 130.392088 205.400862 
L 134.406433 203.287672 
L 138.420778 200.922895 
L 142.435124 198.296348 
L 146.449469 195.40671 
L 150.463814 192.263316 
L 154.478159 188.88747 
L 160.499677 183.467789 
L 178.56423 166.612516 
L 184.585748 161.533499 
L 190.607266 156.815881 
L 198.635956 150.607119 
L 202.650301 147.243063 
L 206.664646 143.518959 
L 210.678991 139.320295 
L 214.693337 134.575186 
L 218.707682 129.268233 
L 222.722027 123.449637 
L 226.736372 117.237792 
L 238.779408 98.231844 
L 242.793753 92.539363 
L 246.808098 87.500255 
L 248.815271 85.265771 
L 250.822443 83.23458 
L 252.829616 81.411678 
L 254.836788 79.798412 
L 256.843961 78.392816 
L 258.851133 77.189961 
L 260.858306 76.182295 
L 262.865479 75.359949 
L 264.872651 74.711026 
L 266.879824 74.221891 
L 268.886996 73.877501 
L 270.894169 73.661798 
L 274.908514 73.550263 
L 278.922859 73.760314 
L 282.937204 74.191146 
L 286.95155 74.79282 
L 290.965895 75.583237 
L 294.98024 76.648854 
L 296.987413 77.326244 
L 298.994585 78.125348 
L 301.001758 79.064913 
L 303.00893 80.161853 
L 305.016103 81.430012 
L 307.023276 82.879148 
L 309.030448 84.514207 
L 311.037621 86.334951 
L 313.044793 88.335942 
L 317.059138 92.833185 
L 321.073484 97.877661 
L 325.087829 103.302527 
L 341.145209 125.621193 
L 345.159555 130.784179 
L 349.1739 135.646718 
L 353.188245 140.184214 
L 357.20259 144.402079 
L 361.216935 148.343136 
L 367.238453 153.924203 
L 375.267143 161.353176 
L 381.288661 167.322029 
L 387.310179 173.678681 
L 397.346042 184.376288 
L 401.360387 188.372392 
L 405.374732 192.081783 
L 409.389077 195.465407 
L 413.403422 198.514663 
L 417.417768 201.244793 
L 421.432113 203.687999 
L 425.446458 205.886732 
L 429.460803 207.88619 
L 435.482321 210.594105 
L 441.503839 213.006859 
L 447.525356 215.100513 
L 451.539702 216.280806 
L 455.554047 217.264842 
L 459.568392 218.047876 
L 463.582737 218.644245 
L 469.604255 219.260143 
L 477.632945 219.777131 
L 479.640118 219.882092 
L 479.640118 219.882092 
" style="fill:none;stroke:#8c0c15;stroke-linecap:round;stroke-width:1.5;"/>
   </g>
   <g id="patch_26">
    <path d="M 60.241406 221.215748 
L 60.241406 55.839943 
" style="fill:none;stroke:#262626;stroke-linecap:square;stroke-linejoin:miter;stroke-width:1.25;"/>
   </g>
   <g id="patch_27">
    <path d="M 60.241406 221.215748 
L 499.611485 221.215748 
" style="fill:none;stroke:#262626;stroke-linecap:square;stroke-linejoin:miter;stroke-width:1.25;"/>
   </g>
  </g>
 </g>
 <defs>
  <clipPath id="pa234b4250b">
   <rect height="29.183966" width="439.370079" x="60.241406" y="7.2"/>
  </clipPath>
  <clipPath id="p4cf69c77a1">
   <rect height="165.375805" width="439.370079" x="60.241406" y="55.839943"/>
  </clipPath>
 </defs>
</svg>
