<?xml version="1.0" encoding="utf-8" standalone="no"?>
<!DOCTYPE svg PUBLIC "-//W3C//DTD SVG 1.1//EN"
  "http://www.w3.org/Graphics/SVG/1.1/DTD/svg11.dtd">
<!-- Created with matplotlib (https://matplotlib.org/) -->
<svg height="270.150904pt" version="1.1" viewBox="0 0 506.811485 270.150904" width="506.811485pt" xmlns="http://www.w3.org/2000/svg" xmlns:xlink="http://www.w3.org/1999/xlink">
 <metadata>
  <rdf:RDF xmlns:cc="http://creativecommons.org/ns#" xmlns:dc="http://purl.org/dc/elements/1.1/" xmlns:rdf="http://www.w3.org/1999/02/22-rdf-syntax-ns#">
   <cc:Work>
    <dc:type rdf:resource="http://purl.org/dc/dcmitype/StillImage"/>
    <dc:date>2023-02-18T18:09:37.223589</dc:date>
    <dc:format>image/svg+xml</dc:format>
    <dc:creator>
     <cc:Agent>
      <dc:title>Matplotlib v3.3.4, https://matplotlib.org/</dc:title>
     </cc:Agent>
    </dc:creator>
   </cc:Work>
  </rdf:RDF>
 </metadata>
 <defs>
  <style type="text/css">*{stroke-linecap:butt;stroke-linejoin:round;}</style>
 </defs>
 <g id="figure_1">
  <g id="patch_1">
   <path d="M -0 270.150904 
L 506.811485 270.150904 
L 506.811485 0 
L -0 0 
z
" style="fill:none;"/>
  </g>
  <g id="axes_1">
   <g id="patch_2">
    <path d="M 60.241406 36.383966 
L 499.611485 36.383966 
L 499.611485 7.2 
L 60.241406 7.2 
z
" style="fill:none;"/>
   </g>
   <g id="matplotlib.axis_1">
    <g id="xtick_1">
     <g id="line2d_1">
      <defs>
       <path d="M 0 0 
L 0 6 
" id="m523f59254a" style="stroke:#262626;stroke-width:1.25;"/>
      </defs>
      <g>
       <use style="fill:#262626;stroke:#262626;stroke-width:1.25;" x="76.56657" xlink:href="#m523f59254a" y="36.383966"/>
      </g>
     </g>
    </g>
    <g id="xtick_2">
     <g id="line2d_2">
      <g>
       <use style="fill:#262626;stroke:#262626;stroke-width:1.25;" x="135.188323" xlink:href="#m523f59254a" y="36.383966"/>
      </g>
     </g>
    </g>
    <g id="xtick_3">
     <g id="line2d_3">
      <g>
       <use style="fill:#262626;stroke:#262626;stroke-width:1.25;" x="193.810076" xlink:href="#m523f59254a" y="36.383966"/>
      </g>
     </g>
    </g>
    <g id="xtick_4">
     <g id="line2d_4">
      <g>
       <use style="fill:#262626;stroke:#262626;stroke-width:1.25;" x="252.431829" xlink:href="#m523f59254a" y="36.383966"/>
      </g>
     </g>
    </g>
    <g id="xtick_5">
     <g id="line2d_5">
      <g>
       <use style="fill:#262626;stroke:#262626;stroke-width:1.25;" x="311.053582" xlink:href="#m523f59254a" y="36.383966"/>
      </g>
     </g>
    </g>
    <g id="xtick_6">
     <g id="line2d_6">
      <g>
       <use style="fill:#262626;stroke:#262626;stroke-width:1.25;" x="369.675335" xlink:href="#m523f59254a" y="36.383966"/>
      </g>
     </g>
    </g>
    <g id="xtick_7">
     <g id="line2d_7">
      <g>
       <use style="fill:#262626;stroke:#262626;stroke-width:1.25;" x="428.297088" xlink:href="#m523f59254a" y="36.383966"/>
      </g>
     </g>
    </g>
    <g id="xtick_8">
     <g id="line2d_8">
      <g>
       <use style="fill:#262626;stroke:#262626;stroke-width:1.25;" x="486.918841" xlink:href="#m523f59254a" y="36.383966"/>
      </g>
     </g>
    </g>
   </g>
   <g id="matplotlib.axis_2"/>
   <g id="patch_3">
    <path clip-path="url(#p1e3bff687b)" d="M 243.182335 10.118397 
L 243.182335 33.465569 
L 323.121652 33.465569 
L 323.121652 10.118397 
L 243.182335 10.118397 
z
" style="fill:#6bc25e;stroke:#565656;stroke-linejoin:miter;stroke-width:1.5;"/>
   </g>
   <g id="line2d_9">
    <path clip-path="url(#p1e3bff687b)" d="M 243.182335 21.791983 
L 125.168802 21.791983 
" style="fill:none;stroke:#565656;stroke-linecap:round;stroke-width:1.5;"/>
   </g>
   <g id="line2d_10">
    <path clip-path="url(#p1e3bff687b)" d="M 323.121652 21.791983 
L 442.667454 21.791983 
" style="fill:none;stroke:#565656;stroke-linecap:round;stroke-width:1.5;"/>
   </g>
   <g id="line2d_11">
    <path clip-path="url(#p1e3bff687b)" d="M 125.168802 15.95519 
L 125.168802 27.628776 
" style="fill:none;stroke:#565656;stroke-linecap:round;stroke-width:1.5;"/>
   </g>
   <g id="line2d_12">
    <path clip-path="url(#p1e3bff687b)" d="M 442.667454 15.95519 
L 442.667454 27.628776 
" style="fill:none;stroke:#565656;stroke-linecap:round;stroke-width:1.5;"/>
   </g>
   <g id="line2d_13">
    <defs>
     <path d="M 0 3.535534 
L 2.12132 0 
L 0 -3.535534 
L -2.12132 0 
z
" id="m814ba2a6a5" style="stroke:#565656;stroke-linejoin:miter;"/>
    </defs>
    <g clip-path="url(#p1e3bff687b)">
     <use style="fill:#565656;stroke:#565656;stroke-linejoin:miter;" x="95.597142" xlink:href="#m814ba2a6a5" y="21.791983"/>
     <use style="fill:#565656;stroke:#565656;stroke-linejoin:miter;" x="80.212773" xlink:href="#m814ba2a6a5" y="21.791983"/>
     <use style="fill:#565656;stroke:#565656;stroke-linejoin:miter;" x="479.640118" xlink:href="#m814ba2a6a5" y="21.791983"/>
     <use style="fill:#565656;stroke:#565656;stroke-linejoin:miter;" x="443.759015" xlink:href="#m814ba2a6a5" y="21.791983"/>
    </g>
   </g>
   <g id="line2d_14">
    <path clip-path="url(#p1e3bff687b)" d="M 282.941846 10.118397 
L 282.941846 33.465569 
" style="fill:none;stroke:#565656;stroke-linecap:round;stroke-width:1.5;"/>
   </g>
   <g id="patch_4">
    <path d="M 60.241406 36.383966 
L 499.611485 36.383966 
" style="fill:none;stroke:#262626;stroke-linecap:square;stroke-linejoin:miter;stroke-width:1.25;"/>
   </g>
  </g>
  <g id="axes_2">
   <g id="patch_5">
    <path d="M 60.241406 221.215748 
L 499.611485 221.215748 
L 499.611485 55.839943 
L 60.241406 55.839943 
z
" style="fill:none;"/>
   </g>
   <g id="matplotlib.axis_3">
    <g id="xtick_9">
     <g id="line2d_15">
      <path clip-path="url(#pa6dbeeb179)" d="M 76.56657 221.215748 
L 76.56657 55.839943 
" style="fill:none;stroke:#cccccc;stroke-linecap:round;"/>
     </g>
     <g id="line2d_16">
      <defs>
       <path d="M 0 0 
L 0 6 
" id="mbc0cdc73fa" style="stroke:#000000;stroke-width:1.25;"/>
      </defs>
      <g>
       <use style="stroke:#000000;stroke-width:1.25;" x="76.56657" xlink:href="#mbc0cdc73fa" y="221.215748"/>
      </g>
     </g>
     <g id="text_1">
      <!-- −2 -->
      <g transform="translate(68.015398 241.452467)scale(0.15 -0.15)">
       <defs>
        <path d="M 52.828125 31.203125 
L 5.5625 31.203125 
L 5.5625 39.40625 
L 52.828125 39.40625 
z
" id="ArialMT-8722"/>
        <path d="M 50.34375 8.453125 
L 50.34375 0 
L 3.03125 0 
Q 2.9375 3.171875 4.046875 6.109375 
Q 5.859375 10.9375 9.828125 15.625 
Q 13.8125 20.3125 21.34375 26.46875 
Q 33.015625 36.03125 37.109375 41.625 
Q 41.21875 47.21875 41.21875 52.203125 
Q 41.21875 57.421875 37.46875 61 
Q 33.734375 64.59375 27.734375 64.59375 
Q 21.390625 64.59375 17.578125 60.78125 
Q 13.765625 56.984375 13.71875 50.25 
L 4.6875 51.171875 
Q 5.609375 61.28125 11.65625 66.578125 
Q 17.71875 71.875 27.9375 71.875 
Q 38.234375 71.875 44.234375 66.15625 
Q 50.25 60.453125 50.25 52 
Q 50.25 47.703125 48.484375 43.546875 
Q 46.734375 39.40625 42.65625 34.8125 
Q 38.578125 30.21875 29.109375 22.21875 
Q 21.1875 15.578125 18.9375 13.203125 
Q 16.703125 10.84375 15.234375 8.453125 
z
" id="ArialMT-50"/>
       </defs>
       <use xlink:href="#ArialMT-8722"/>
       <use x="58.398438" xlink:href="#ArialMT-50"/>
      </g>
     </g>
    </g>
    <g id="xtick_10">
     <g id="line2d_17">
      <path clip-path="url(#pa6dbeeb179)" d="M 135.188323 221.215748 
L 135.188323 55.839943 
" style="fill:none;stroke:#cccccc;stroke-linecap:round;"/>
     </g>
     <g id="line2d_18">
      <g>
       <use style="stroke:#000000;stroke-width:1.25;" x="135.188323" xlink:href="#mbc0cdc73fa" y="221.215748"/>
      </g>
     </g>
     <g id="text_2">
      <!-- 0 -->
      <g transform="translate(131.017619 241.452467)scale(0.15 -0.15)">
       <defs>
        <path d="M 4.15625 35.296875 
Q 4.15625 48 6.765625 55.734375 
Q 9.375 63.484375 14.515625 67.671875 
Q 19.671875 71.875 27.484375 71.875 
Q 33.25 71.875 37.59375 69.546875 
Q 41.9375 67.234375 44.765625 62.859375 
Q 47.609375 58.5 49.21875 52.21875 
Q 50.828125 45.953125 50.828125 35.296875 
Q 50.828125 22.703125 48.234375 14.96875 
Q 45.65625 7.234375 40.5 3 
Q 35.359375 -1.21875 27.484375 -1.21875 
Q 17.140625 -1.21875 11.234375 6.203125 
Q 4.15625 15.140625 4.15625 35.296875 
z
M 13.1875 35.296875 
Q 13.1875 17.671875 17.3125 11.828125 
Q 21.4375 6 27.484375 6 
Q 33.546875 6 37.671875 11.859375 
Q 41.796875 17.71875 41.796875 35.296875 
Q 41.796875 52.984375 37.671875 58.78125 
Q 33.546875 64.59375 27.390625 64.59375 
Q 21.34375 64.59375 17.71875 59.46875 
Q 13.1875 52.9375 13.1875 35.296875 
z
" id="ArialMT-48"/>
       </defs>
       <use xlink:href="#ArialMT-48"/>
      </g>
     </g>
    </g>
    <g id="xtick_11">
     <g id="line2d_19">
      <path clip-path="url(#pa6dbeeb179)" d="M 193.810076 221.215748 
L 193.810076 55.839943 
" style="fill:none;stroke:#cccccc;stroke-linecap:round;"/>
     </g>
     <g id="line2d_20">
      <g>
       <use style="stroke:#000000;stroke-width:1.25;" x="193.810076" xlink:href="#mbc0cdc73fa" y="221.215748"/>
      </g>
     </g>
     <g id="text_3">
      <!-- 2 -->
      <g transform="translate(189.639372 241.452467)scale(0.15 -0.15)">
       <use xlink:href="#ArialMT-50"/>
      </g>
     </g>
    </g>
    <g id="xtick_12">
     <g id="line2d_21">
      <path clip-path="url(#pa6dbeeb179)" d="M 252.431829 221.215748 
L 252.431829 55.839943 
" style="fill:none;stroke:#cccccc;stroke-linecap:round;"/>
     </g>
     <g id="line2d_22">
      <g>
       <use style="stroke:#000000;stroke-width:1.25;" x="252.431829" xlink:href="#mbc0cdc73fa" y="221.215748"/>
      </g>
     </g>
     <g id="text_4">
      <!-- 4 -->
      <g transform="translate(248.261126 241.452467)scale(0.15 -0.15)">
       <defs>
        <path d="M 32.328125 0 
L 32.328125 17.140625 
L 1.265625 17.140625 
L 1.265625 25.203125 
L 33.9375 71.578125 
L 41.109375 71.578125 
L 41.109375 25.203125 
L 50.78125 25.203125 
L 50.78125 17.140625 
L 41.109375 17.140625 
L 41.109375 0 
z
M 32.328125 25.203125 
L 32.328125 57.46875 
L 9.90625 25.203125 
z
" id="ArialMT-52"/>
       </defs>
       <use xlink:href="#ArialMT-52"/>
      </g>
     </g>
    </g>
    <g id="xtick_13">
     <g id="line2d_23">
      <path clip-path="url(#pa6dbeeb179)" d="M 311.053582 221.215748 
L 311.053582 55.839943 
" style="fill:none;stroke:#cccccc;stroke-linecap:round;"/>
     </g>
     <g id="line2d_24">
      <g>
       <use style="stroke:#000000;stroke-width:1.25;" x="311.053582" xlink:href="#mbc0cdc73fa" y="221.215748"/>
      </g>
     </g>
     <g id="text_5">
      <!-- 6 -->
      <g transform="translate(306.882879 241.452467)scale(0.15 -0.15)">
       <defs>
        <path d="M 49.75 54.046875 
L 41.015625 53.375 
Q 39.84375 58.546875 37.703125 60.890625 
Q 34.125 64.65625 28.90625 64.65625 
Q 24.703125 64.65625 21.53125 62.3125 
Q 17.390625 59.28125 14.984375 53.46875 
Q 12.59375 47.65625 12.5 36.921875 
Q 15.671875 41.75 20.265625 44.09375 
Q 24.859375 46.4375 29.890625 46.4375 
Q 38.671875 46.4375 44.84375 39.96875 
Q 51.03125 33.5 51.03125 23.25 
Q 51.03125 16.5 48.125 10.71875 
Q 45.21875 4.9375 40.140625 1.859375 
Q 35.0625 -1.21875 28.609375 -1.21875 
Q 17.625 -1.21875 10.6875 6.859375 
Q 3.765625 14.9375 3.765625 33.5 
Q 3.765625 54.25 11.421875 63.671875 
Q 18.109375 71.875 29.4375 71.875 
Q 37.890625 71.875 43.28125 67.140625 
Q 48.6875 62.40625 49.75 54.046875 
z
M 13.875 23.1875 
Q 13.875 18.65625 15.796875 14.5 
Q 17.71875 10.359375 21.1875 8.171875 
Q 24.65625 6 28.46875 6 
Q 34.03125 6 38.03125 10.484375 
Q 42.046875 14.984375 42.046875 22.703125 
Q 42.046875 30.125 38.078125 34.390625 
Q 34.125 38.671875 28.125 38.671875 
Q 22.171875 38.671875 18.015625 34.390625 
Q 13.875 30.125 13.875 23.1875 
z
" id="ArialMT-54"/>
       </defs>
       <use xlink:href="#ArialMT-54"/>
      </g>
     </g>
    </g>
    <g id="xtick_14">
     <g id="line2d_25">
      <path clip-path="url(#pa6dbeeb179)" d="M 369.675335 221.215748 
L 369.675335 55.839943 
" style="fill:none;stroke:#cccccc;stroke-linecap:round;"/>
     </g>
     <g id="line2d_26">
      <g>
       <use style="stroke:#000000;stroke-width:1.25;" x="369.675335" xlink:href="#mbc0cdc73fa" y="221.215748"/>
      </g>
     </g>
     <g id="text_6">
      <!-- 8 -->
      <g transform="translate(365.504632 241.452467)scale(0.15 -0.15)">
       <defs>
        <path d="M 17.671875 38.8125 
Q 12.203125 40.828125 9.5625 44.53125 
Q 6.9375 48.25 6.9375 53.421875 
Q 6.9375 61.234375 12.546875 66.546875 
Q 18.171875 71.875 27.484375 71.875 
Q 36.859375 71.875 42.578125 66.421875 
Q 48.296875 60.984375 48.296875 53.171875 
Q 48.296875 48.1875 45.671875 44.5 
Q 43.0625 40.828125 37.75 38.8125 
Q 44.34375 36.671875 47.78125 31.875 
Q 51.21875 27.09375 51.21875 20.453125 
Q 51.21875 11.28125 44.71875 5.03125 
Q 38.234375 -1.21875 27.640625 -1.21875 
Q 17.046875 -1.21875 10.546875 5.046875 
Q 4.046875 11.328125 4.046875 20.703125 
Q 4.046875 27.6875 7.59375 32.390625 
Q 11.140625 37.109375 17.671875 38.8125 
z
M 15.921875 53.71875 
Q 15.921875 48.640625 19.1875 45.40625 
Q 22.46875 42.1875 27.6875 42.1875 
Q 32.765625 42.1875 36.015625 45.375 
Q 39.265625 48.578125 39.265625 53.21875 
Q 39.265625 58.0625 35.90625 61.359375 
Q 32.5625 64.65625 27.59375 64.65625 
Q 22.5625 64.65625 19.234375 61.421875 
Q 15.921875 58.203125 15.921875 53.71875 
z
M 13.09375 20.65625 
Q 13.09375 16.890625 14.875 13.375 
Q 16.65625 9.859375 20.171875 7.921875 
Q 23.6875 6 27.734375 6 
Q 34.03125 6 38.125 10.046875 
Q 42.234375 14.109375 42.234375 20.359375 
Q 42.234375 26.703125 38.015625 30.859375 
Q 33.796875 35.015625 27.4375 35.015625 
Q 21.234375 35.015625 17.15625 30.90625 
Q 13.09375 26.8125 13.09375 20.65625 
z
" id="ArialMT-56"/>
       </defs>
       <use xlink:href="#ArialMT-56"/>
      </g>
     </g>
    </g>
    <g id="xtick_15">
     <g id="line2d_27">
      <path clip-path="url(#pa6dbeeb179)" d="M 428.297088 221.215748 
L 428.297088 55.839943 
" style="fill:none;stroke:#cccccc;stroke-linecap:round;"/>
     </g>
     <g id="line2d_28">
      <g>
       <use style="stroke:#000000;stroke-width:1.25;" x="428.297088" xlink:href="#mbc0cdc73fa" y="221.215748"/>
      </g>
     </g>
     <g id="text_7">
      <!-- 10 -->
      <g transform="translate(419.955682 241.452467)scale(0.15 -0.15)">
       <defs>
        <path d="M 37.25 0 
L 28.46875 0 
L 28.46875 56 
Q 25.296875 52.984375 20.140625 49.953125 
Q 14.984375 46.921875 10.890625 45.40625 
L 10.890625 53.90625 
Q 18.265625 57.375 23.78125 62.296875 
Q 29.296875 67.234375 31.59375 71.875 
L 37.25 71.875 
z
" id="ArialMT-49"/>
       </defs>
       <use xlink:href="#ArialMT-49"/>
       <use x="55.615234" xlink:href="#ArialMT-48"/>
      </g>
     </g>
    </g>
    <g id="xtick_16">
     <g id="line2d_29">
      <path clip-path="url(#pa6dbeeb179)" d="M 486.918841 221.215748 
L 486.918841 55.839943 
" style="fill:none;stroke:#cccccc;stroke-linecap:round;"/>
     </g>
     <g id="line2d_30">
      <g>
       <use style="stroke:#000000;stroke-width:1.25;" x="486.918841" xlink:href="#mbc0cdc73fa" y="221.215748"/>
      </g>
     </g>
     <g id="text_8">
      <!-- 12 -->
      <g transform="translate(478.577435 241.452467)scale(0.15 -0.15)">
       <use xlink:href="#ArialMT-49"/>
       <use x="55.615234" xlink:href="#ArialMT-50"/>
      </g>
     </g>
    </g>
    <g id="text_9">
     <!-- $x_{2}$ -->
     <g transform="translate(271.901446 259.831373)scale(0.15 -0.15)">
      <defs>
       <path d="M 60.015625 54.6875 
L 34.90625 27.875 
L 50.296875 0 
L 39.984375 0 
L 28.421875 21.6875 
L 8.296875 0 
L -2.59375 0 
L 24.3125 28.8125 
L 10.015625 54.6875 
L 20.3125 54.6875 
L 30.8125 34.90625 
L 49.125 54.6875 
z
" id="DejaVuSans-Oblique-120"/>
       <path d="M 19.1875 8.296875 
L 53.609375 8.296875 
L 53.609375 0 
L 7.328125 0 
L 7.328125 8.296875 
Q 12.9375 14.109375 22.625 23.890625 
Q 32.328125 33.6875 34.8125 36.53125 
Q 39.546875 41.84375 41.421875 45.53125 
Q 43.3125 49.21875 43.3125 52.78125 
Q 43.3125 58.59375 39.234375 62.25 
Q 35.15625 65.921875 28.609375 65.921875 
Q 23.96875 65.921875 18.8125 64.3125 
Q 13.671875 62.703125 7.8125 59.421875 
L 7.8125 69.390625 
Q 13.765625 71.78125 18.9375 73 
Q 24.125 74.21875 28.421875 74.21875 
Q 39.75 74.21875 46.484375 68.546875 
Q 53.21875 62.890625 53.21875 53.421875 
Q 53.21875 48.921875 51.53125 44.890625 
Q 49.859375 40.875 45.40625 35.40625 
Q 44.1875 33.984375 37.640625 27.21875 
Q 31.109375 20.453125 19.1875 8.296875 
z
" id="DejaVuSans-50"/>
      </defs>
      <use transform="translate(0 0.3125)" xlink:href="#DejaVuSans-Oblique-120"/>
      <use transform="translate(59.179688 -16.09375)scale(0.7)" xlink:href="#DejaVuSans-50"/>
     </g>
    </g>
   </g>
   <g id="matplotlib.axis_4">
    <g id="ytick_1">
     <g id="line2d_31">
      <path clip-path="url(#pa6dbeeb179)" d="M 60.241406 221.215748 
L 499.611485 221.215748 
" style="fill:none;stroke:#cccccc;stroke-linecap:round;"/>
     </g>
     <g id="line2d_32">
      <defs>
       <path d="M 0 0 
L -6 0 
" id="m02f8ad66f3" style="stroke:#000000;stroke-width:1.25;"/>
      </defs>
      <g>
       <use style="stroke:#000000;stroke-width:1.25;" x="60.241406" xlink:href="#m02f8ad66f3" y="221.215748"/>
      </g>
     </g>
     <g id="text_10">
      <!-- 0 -->
      <g transform="translate(42.4 226.584107)scale(0.15 -0.15)">
       <use xlink:href="#ArialMT-48"/>
      </g>
     </g>
    </g>
    <g id="ytick_2">
     <g id="line2d_33">
      <path clip-path="url(#pa6dbeeb179)" d="M 60.241406 165.757731 
L 499.611485 165.757731 
" style="fill:none;stroke:#cccccc;stroke-linecap:round;"/>
     </g>
     <g id="line2d_34">
      <g>
       <use style="stroke:#000000;stroke-width:1.25;" x="60.241406" xlink:href="#m02f8ad66f3" y="165.757731"/>
      </g>
     </g>
     <g id="text_11">
      <!-- 50 -->
      <g transform="translate(34.058594 171.126091)scale(0.15 -0.15)">
       <defs>
        <path d="M 4.15625 18.75 
L 13.375 19.53125 
Q 14.40625 12.796875 18.140625 9.390625 
Q 21.875 6 27.15625 6 
Q 33.5 6 37.890625 10.78125 
Q 42.28125 15.578125 42.28125 23.484375 
Q 42.28125 31 38.0625 35.34375 
Q 33.84375 39.703125 27 39.703125 
Q 22.75 39.703125 19.328125 37.765625 
Q 15.921875 35.84375 13.96875 32.765625 
L 5.71875 33.84375 
L 12.640625 70.609375 
L 48.25 70.609375 
L 48.25 62.203125 
L 19.671875 62.203125 
L 15.828125 42.96875 
Q 22.265625 47.46875 29.34375 47.46875 
Q 38.71875 47.46875 45.15625 40.96875 
Q 51.609375 34.46875 51.609375 24.265625 
Q 51.609375 14.546875 45.953125 7.46875 
Q 39.0625 -1.21875 27.15625 -1.21875 
Q 17.390625 -1.21875 11.203125 4.25 
Q 5.03125 9.71875 4.15625 18.75 
z
" id="ArialMT-53"/>
       </defs>
       <use xlink:href="#ArialMT-53"/>
       <use x="55.615234" xlink:href="#ArialMT-48"/>
      </g>
     </g>
    </g>
    <g id="ytick_3">
     <g id="line2d_35">
      <path clip-path="url(#pa6dbeeb179)" d="M 60.241406 110.299715 
L 499.611485 110.299715 
" style="fill:none;stroke:#cccccc;stroke-linecap:round;"/>
     </g>
     <g id="line2d_36">
      <g>
       <use style="stroke:#000000;stroke-width:1.25;" x="60.241406" xlink:href="#m02f8ad66f3" y="110.299715"/>
      </g>
     </g>
     <g id="text_12">
      <!-- 100 -->
      <g transform="translate(25.717188 115.668074)scale(0.15 -0.15)">
       <use xlink:href="#ArialMT-49"/>
       <use x="55.615234" xlink:href="#ArialMT-48"/>
       <use x="111.230469" xlink:href="#ArialMT-48"/>
      </g>
     </g>
    </g>
    <g id="text_13">
     <!-- Frequency -->
     <g transform="translate(18.597656 177.272377)rotate(-90)scale(0.15 -0.15)">
      <defs>
       <path d="M 9.8125 72.90625 
L 51.703125 72.90625 
L 51.703125 64.59375 
L 19.671875 64.59375 
L 19.671875 43.109375 
L 48.578125 43.109375 
L 48.578125 34.8125 
L 19.671875 34.8125 
L 19.671875 0 
L 9.8125 0 
z
" id="DejaVuSans-70"/>
       <path d="M 41.109375 46.296875 
Q 39.59375 47.171875 37.8125 47.578125 
Q 36.03125 48 33.890625 48 
Q 26.265625 48 22.1875 43.046875 
Q 18.109375 38.09375 18.109375 28.8125 
L 18.109375 0 
L 9.078125 0 
L 9.078125 54.6875 
L 18.109375 54.6875 
L 18.109375 46.1875 
Q 20.953125 51.171875 25.484375 53.578125 
Q 30.03125 56 36.53125 56 
Q 37.453125 56 38.578125 55.875 
Q 39.703125 55.765625 41.0625 55.515625 
z
" id="DejaVuSans-114"/>
       <path d="M 56.203125 29.59375 
L 56.203125 25.203125 
L 14.890625 25.203125 
Q 15.484375 15.921875 20.484375 11.0625 
Q 25.484375 6.203125 34.421875 6.203125 
Q 39.59375 6.203125 44.453125 7.46875 
Q 49.3125 8.734375 54.109375 11.28125 
L 54.109375 2.78125 
Q 49.265625 0.734375 44.1875 -0.34375 
Q 39.109375 -1.421875 33.890625 -1.421875 
Q 20.796875 -1.421875 13.15625 6.1875 
Q 5.515625 13.8125 5.515625 26.8125 
Q 5.515625 40.234375 12.765625 48.109375 
Q 20.015625 56 32.328125 56 
Q 43.359375 56 49.78125 48.890625 
Q 56.203125 41.796875 56.203125 29.59375 
z
M 47.21875 32.234375 
Q 47.125 39.59375 43.09375 43.984375 
Q 39.0625 48.390625 32.421875 48.390625 
Q 24.90625 48.390625 20.390625 44.140625 
Q 15.875 39.890625 15.1875 32.171875 
z
" id="DejaVuSans-101"/>
       <path d="M 14.796875 27.296875 
Q 14.796875 17.390625 18.875 11.75 
Q 22.953125 6.109375 30.078125 6.109375 
Q 37.203125 6.109375 41.296875 11.75 
Q 45.40625 17.390625 45.40625 27.296875 
Q 45.40625 37.203125 41.296875 42.84375 
Q 37.203125 48.484375 30.078125 48.484375 
Q 22.953125 48.484375 18.875 42.84375 
Q 14.796875 37.203125 14.796875 27.296875 
z
M 45.40625 8.203125 
Q 42.578125 3.328125 38.25 0.953125 
Q 33.9375 -1.421875 27.875 -1.421875 
Q 17.96875 -1.421875 11.734375 6.484375 
Q 5.515625 14.40625 5.515625 27.296875 
Q 5.515625 40.1875 11.734375 48.09375 
Q 17.96875 56 27.875 56 
Q 33.9375 56 38.25 53.625 
Q 42.578125 51.265625 45.40625 46.390625 
L 45.40625 54.6875 
L 54.390625 54.6875 
L 54.390625 -20.796875 
L 45.40625 -20.796875 
z
" id="DejaVuSans-113"/>
       <path d="M 8.5 21.578125 
L 8.5 54.6875 
L 17.484375 54.6875 
L 17.484375 21.921875 
Q 17.484375 14.15625 20.5 10.265625 
Q 23.53125 6.390625 29.59375 6.390625 
Q 36.859375 6.390625 41.078125 11.03125 
Q 45.3125 15.671875 45.3125 23.6875 
L 45.3125 54.6875 
L 54.296875 54.6875 
L 54.296875 0 
L 45.3125 0 
L 45.3125 8.40625 
Q 42.046875 3.421875 37.71875 1 
Q 33.40625 -1.421875 27.6875 -1.421875 
Q 18.265625 -1.421875 13.375 4.4375 
Q 8.5 10.296875 8.5 21.578125 
z
M 31.109375 56 
z
" id="DejaVuSans-117"/>
       <path d="M 54.890625 33.015625 
L 54.890625 0 
L 45.90625 0 
L 45.90625 32.71875 
Q 45.90625 40.484375 42.875 44.328125 
Q 39.84375 48.1875 33.796875 48.1875 
Q 26.515625 48.1875 22.3125 43.546875 
Q 18.109375 38.921875 18.109375 30.90625 
L 18.109375 0 
L 9.078125 0 
L 9.078125 54.6875 
L 18.109375 54.6875 
L 18.109375 46.1875 
Q 21.34375 51.125 25.703125 53.5625 
Q 30.078125 56 35.796875 56 
Q 45.21875 56 50.046875 50.171875 
Q 54.890625 44.34375 54.890625 33.015625 
z
" id="DejaVuSans-110"/>
       <path d="M 48.78125 52.59375 
L 48.78125 44.1875 
Q 44.96875 46.296875 41.140625 47.34375 
Q 37.3125 48.390625 33.40625 48.390625 
Q 24.65625 48.390625 19.8125 42.84375 
Q 14.984375 37.3125 14.984375 27.296875 
Q 14.984375 17.28125 19.8125 11.734375 
Q 24.65625 6.203125 33.40625 6.203125 
Q 37.3125 6.203125 41.140625 7.25 
Q 44.96875 8.296875 48.78125 10.40625 
L 48.78125 2.09375 
Q 45.015625 0.34375 40.984375 -0.53125 
Q 36.96875 -1.421875 32.421875 -1.421875 
Q 20.0625 -1.421875 12.78125 6.34375 
Q 5.515625 14.109375 5.515625 27.296875 
Q 5.515625 40.671875 12.859375 48.328125 
Q 20.21875 56 33.015625 56 
Q 37.15625 56 41.109375 55.140625 
Q 45.0625 54.296875 48.78125 52.59375 
z
" id="DejaVuSans-99"/>
       <path d="M 32.171875 -5.078125 
Q 28.375 -14.84375 24.75 -17.8125 
Q 21.140625 -20.796875 15.09375 -20.796875 
L 7.90625 -20.796875 
L 7.90625 -13.28125 
L 13.1875 -13.28125 
Q 16.890625 -13.28125 18.9375 -11.515625 
Q 21 -9.765625 23.484375 -3.21875 
L 25.09375 0.875 
L 2.984375 54.6875 
L 12.5 54.6875 
L 29.59375 11.921875 
L 46.6875 54.6875 
L 56.203125 54.6875 
z
" id="DejaVuSans-121"/>
      </defs>
      <use xlink:href="#DejaVuSans-70"/>
      <use x="50.269531" xlink:href="#DejaVuSans-114"/>
      <use x="89.132812" xlink:href="#DejaVuSans-101"/>
      <use x="150.65625" xlink:href="#DejaVuSans-113"/>
      <use x="214.132812" xlink:href="#DejaVuSans-117"/>
      <use x="277.511719" xlink:href="#DejaVuSans-101"/>
      <use x="339.035156" xlink:href="#DejaVuSans-110"/>
      <use x="402.414062" xlink:href="#DejaVuSans-99"/>
      <use x="457.394531" xlink:href="#DejaVuSans-121"/>
     </g>
    </g>
   </g>
   <g id="patch_6">
    <path clip-path="url(#pa6dbeeb179)" d="M 80.212773 221.215748 
L 100.184141 221.215748 
L 100.184141 218.997427 
L 80.212773 218.997427 
z
" style="fill:#5fd34d;fill-opacity:0.5;stroke:#ffffff;stroke-linejoin:miter;"/>
   </g>
   <g id="patch_7">
    <path clip-path="url(#pa6dbeeb179)" d="M 100.184141 221.215748 
L 120.155508 221.215748 
L 120.155508 221.215748 
L 100.184141 221.215748 
z
" style="fill:#5fd34d;fill-opacity:0.5;stroke:#ffffff;stroke-linejoin:miter;"/>
   </g>
   <g id="patch_8">
    <path clip-path="url(#pa6dbeeb179)" d="M 120.155508 221.215748 
L 140.126875 221.215748 
L 140.126875 213.451626 
L 120.155508 213.451626 
z
" style="fill:#5fd34d;fill-opacity:0.5;stroke:#ffffff;stroke-linejoin:miter;"/>
   </g>
   <g id="patch_9">
    <path clip-path="url(#pa6dbeeb179)" d="M 140.126875 221.215748 
L 160.098242 221.215748 
L 160.098242 211.233305 
L 140.126875 211.233305 
z
" style="fill:#5fd34d;fill-opacity:0.5;stroke:#ffffff;stroke-linejoin:miter;"/>
   </g>
   <g id="patch_10">
    <path clip-path="url(#pa6dbeeb179)" d="M 160.098242 221.215748 
L 180.06961 221.215748 
L 180.06961 206.796664 
L 160.098242 206.796664 
z
" style="fill:#5fd34d;fill-opacity:0.5;stroke:#ffffff;stroke-linejoin:miter;"/>
   </g>
   <g id="patch_11">
    <path clip-path="url(#pa6dbeeb179)" d="M 180.06961 221.215748 
L 200.040977 221.215748 
L 200.040977 181.285976 
L 180.06961 181.285976 
z
" style="fill:#5fd34d;fill-opacity:0.5;stroke:#ffffff;stroke-linejoin:miter;"/>
   </g>
   <g id="patch_12">
    <path clip-path="url(#pa6dbeeb179)" d="M 200.040977 221.215748 
L 220.012344 221.215748 
L 220.012344 149.120327 
L 200.040977 149.120327 
z
" style="fill:#5fd34d;fill-opacity:0.5;stroke:#ffffff;stroke-linejoin:miter;"/>
   </g>
   <g id="patch_13">
    <path clip-path="url(#pa6dbeeb179)" d="M 220.012344 221.215748 
L 239.983711 221.215748 
L 239.983711 119.172998 
L 220.012344 119.172998 
z
" style="fill:#5fd34d;fill-opacity:0.5;stroke:#ffffff;stroke-linejoin:miter;"/>
   </g>
   <g id="patch_14">
    <path clip-path="url(#pa6dbeeb179)" d="M 239.983711 221.215748 
L 259.955078 221.215748 
L 259.955078 99.208112 
L 239.983711 99.208112 
z
" style="fill:#5fd34d;fill-opacity:0.5;stroke:#ffffff;stroke-linejoin:miter;"/>
   </g>
   <g id="patch_15">
    <path clip-path="url(#pa6dbeeb179)" d="M 259.955078 221.215748 
L 279.926446 221.215748 
L 279.926446 63.714981 
L 259.955078 63.714981 
z
" style="fill:#5fd34d;fill-opacity:0.5;stroke:#ffffff;stroke-linejoin:miter;"/>
   </g>
   <g id="patch_16">
    <path clip-path="url(#pa6dbeeb179)" d="M 279.926446 221.215748 
L 299.897813 221.215748 
L 299.897813 72.588264 
L 279.926446 72.588264 
z
" style="fill:#5fd34d;fill-opacity:0.5;stroke:#ffffff;stroke-linejoin:miter;"/>
   </g>
   <g id="patch_17">
    <path clip-path="url(#pa6dbeeb179)" d="M 299.897813 221.215748 
L 319.86918 221.215748 
L 319.86918 90.334829 
L 299.897813 90.334829 
z
" style="fill:#5fd34d;fill-opacity:0.5;stroke:#ffffff;stroke-linejoin:miter;"/>
   </g>
   <g id="patch_18">
    <path clip-path="url(#pa6dbeeb179)" d="M 319.86918 221.215748 
L 339.840547 221.215748 
L 339.840547 96.989791 
L 319.86918 96.989791 
z
" style="fill:#5fd34d;fill-opacity:0.5;stroke:#ffffff;stroke-linejoin:miter;"/>
   </g>
   <g id="patch_19">
    <path clip-path="url(#pa6dbeeb179)" d="M 339.840547 221.215748 
L 359.811914 221.215748 
L 359.811914 149.120327 
L 339.840547 149.120327 
z
" style="fill:#5fd34d;fill-opacity:0.5;stroke:#ffffff;stroke-linejoin:miter;"/>
   </g>
   <g id="patch_20">
    <path clip-path="url(#pa6dbeeb179)" d="M 359.811914 221.215748 
L 379.783282 221.215748 
L 379.783282 177.958495 
L 359.811914 177.958495 
z
" style="fill:#5fd34d;fill-opacity:0.5;stroke:#ffffff;stroke-linejoin:miter;"/>
   </g>
   <g id="patch_21">
    <path clip-path="url(#pa6dbeeb179)" d="M 379.783282 221.215748 
L 399.754649 221.215748 
L 399.754649 192.377579 
L 379.783282 192.377579 
z
" style="fill:#5fd34d;fill-opacity:0.5;stroke:#ffffff;stroke-linejoin:miter;"/>
   </g>
   <g id="patch_22">
    <path clip-path="url(#pa6dbeeb179)" d="M 399.754649 221.215748 
L 419.726016 221.215748 
L 419.726016 203.469183 
L 399.754649 203.469183 
z
" style="fill:#5fd34d;fill-opacity:0.5;stroke:#ffffff;stroke-linejoin:miter;"/>
   </g>
   <g id="patch_23">
    <path clip-path="url(#pa6dbeeb179)" d="M 419.726016 221.215748 
L 439.697383 221.215748 
L 439.697383 211.233305 
L 419.726016 211.233305 
z
" style="fill:#5fd34d;fill-opacity:0.5;stroke:#ffffff;stroke-linejoin:miter;"/>
   </g>
   <g id="patch_24">
    <path clip-path="url(#pa6dbeeb179)" d="M 439.697383 221.215748 
L 459.668751 221.215748 
L 459.668751 216.779107 
L 439.697383 216.779107 
z
" style="fill:#5fd34d;fill-opacity:0.5;stroke:#ffffff;stroke-linejoin:miter;"/>
   </g>
   <g id="patch_25">
    <path clip-path="url(#pa6dbeeb179)" d="M 459.668751 221.215748 
L 479.640118 221.215748 
L 479.640118 220.106588 
L 459.668751 220.106588 
z
" style="fill:#5fd34d;fill-opacity:0.5;stroke:#ffffff;stroke-linejoin:miter;"/>
   </g>
   <g id="line2d_37">
    <path clip-path="url(#pa6dbeeb179)" d="M 80.212773 220.257406 
L 90.248636 220.109212 
L 102.291672 220.007423 
L 108.31319 219.678131 
L 112.327535 219.239256 
L 116.34188 218.589117 
L 120.356225 217.731064 
L 126.377743 216.149595 
L 136.413606 213.367612 
L 142.435124 211.943881 
L 152.470987 209.683851 
L 156.485332 208.476678 
L 160.499677 206.875317 
L 162.506849 205.886223 
L 164.514022 204.755104 
L 166.521195 203.473989 
L 168.528367 202.038838 
L 170.53554 200.449688 
L 174.549885 196.82903 
L 178.56423 192.683709 
L 182.578575 188.119813 
L 186.59292 183.247263 
L 192.614438 175.529818 
L 198.635956 167.376472 
L 202.650301 161.640156 
L 206.664646 155.600135 
L 210.678991 149.23107 
L 216.700509 139.166507 
L 224.7292 125.672484 
L 228.743545 119.479454 
L 230.750717 116.639608 
L 232.75789 114.003028 
L 234.765062 111.581896 
L 236.772235 109.376413 
L 238.779408 107.373725 
L 242.793753 103.8615 
L 252.829616 95.793658 
L 256.843961 91.950809 
L 260.858306 87.622498 
L 266.879824 80.88654 
L 268.886996 78.8167 
L 270.894169 76.941158 
L 272.901342 75.314616 
L 274.908514 73.979782 
L 276.915687 72.964933 
L 278.922859 72.283009 
L 280.930032 71.932161 
L 282.937204 71.897517 
L 284.944377 72.153808 
L 286.95155 72.668441 
L 288.958722 73.404649 
L 290.965895 74.324373 
L 294.98024 76.569767 
L 298.994585 79.153228 
L 305.016103 83.314783 
L 311.037621 87.697776 
L 315.051966 90.861163 
L 319.066311 94.398475 
L 321.073484 96.365152 
L 323.080656 98.493352 
L 325.087829 100.801783 
L 327.095001 103.30478 
L 329.102174 106.011186 
L 331.109347 108.923515 
L 335.123692 115.341677 
L 339.138037 122.442898 
L 345.159555 133.896869 
L 351.181072 145.492521 
L 355.195418 152.875737 
L 359.209763 159.769959 
L 363.224108 166.076235 
L 367.238453 171.75208 
L 371.252798 176.787944 
L 375.267143 181.192446 
L 379.281489 184.99274 
L 383.295834 188.2438 
L 387.310179 191.03351 
L 391.324524 193.473731 
L 395.338869 195.678008 
L 401.360387 198.728053 
L 407.381905 201.578766 
L 413.403422 204.215608 
L 419.42494 206.597422 
L 425.446458 208.747734 
L 437.489494 212.724599 
L 449.532529 216.545731 
L 453.546874 217.646308 
L 457.561219 218.570944 
L 461.575565 219.287467 
L 465.58991 219.794915 
L 471.611427 220.234297 
L 479.640118 220.489214 
L 479.640118 220.489214 
" style="fill:none;stroke:#5fd34d;stroke-linecap:round;stroke-width:1.5;"/>
   </g>
   <g id="patch_26">
    <path d="M 60.241406 221.215748 
L 60.241406 55.839943 
" style="fill:none;stroke:#262626;stroke-linecap:square;stroke-linejoin:miter;stroke-width:1.25;"/>
   </g>
   <g id="patch_27">
    <path d="M 60.241406 221.215748 
L 499.611485 221.215748 
" style="fill:none;stroke:#262626;stroke-linecap:square;stroke-linejoin:miter;stroke-width:1.25;"/>
   </g>
  </g>
 </g>
 <defs>
  <clipPath id="p1e3bff687b">
   <rect height="29.183966" width="439.370079" x="60.241406" y="7.2"/>
  </clipPath>
  <clipPath id="pa6dbeeb179">
   <rect height="165.375805" width="439.370079" x="60.241406" y="55.839943"/>
  </clipPath>
 </defs>
</svg>
