<?xml version="1.0" encoding="utf-8" standalone="no"?>
<!DOCTYPE svg PUBLIC "-//W3C//DTD SVG 1.1//EN"
  "http://www.w3.org/Graphics/SVG/1.1/DTD/svg11.dtd">
<!-- Created with matplotlib (https://matplotlib.org/) -->
<svg height="270.150904pt" version="1.1" viewBox="0 0 506.811485 270.150904" width="506.811485pt" xmlns="http://www.w3.org/2000/svg" xmlns:xlink="http://www.w3.org/1999/xlink">
 <metadata>
  <rdf:RDF xmlns:cc="http://creativecommons.org/ns#" xmlns:dc="http://purl.org/dc/elements/1.1/" xmlns:rdf="http://www.w3.org/1999/02/22-rdf-syntax-ns#">
   <cc:Work>
    <dc:type rdf:resource="http://purl.org/dc/dcmitype/StillImage"/>
    <dc:date>2023-02-18T18:09:37.520657</dc:date>
    <dc:format>image/svg+xml</dc:format>
    <dc:creator>
     <cc:Agent>
      <dc:title>Matplotlib v3.3.4, https://matplotlib.org/</dc:title>
     </cc:Agent>
    </dc:creator>
   </cc:Work>
  </rdf:RDF>
 </metadata>
 <defs>
  <style type="text/css">*{stroke-linecap:butt;stroke-linejoin:round;}</style>
 </defs>
 <g id="figure_1">
  <g id="patch_1">
   <path d="M -0 270.150904 
L 506.811485 270.150904 
L 506.811485 0 
L -0 0 
z
" style="fill:none;"/>
  </g>
  <g id="axes_1">
   <g id="patch_2">
    <path d="M 60.241406 36.383966 
L 499.611485 36.383966 
L 499.611485 7.2 
L 60.241406 7.2 
z
" style="fill:none;"/>
   </g>
   <g id="matplotlib.axis_1">
    <g id="xtick_1">
     <g id="line2d_1">
      <defs>
       <path d="M 0 0 
L 0 6 
" id="m6231c80017" style="stroke:#262626;stroke-width:1.25;"/>
      </defs>
      <g>
       <use style="fill:#262626;stroke:#262626;stroke-width:1.25;" x="75.736585" xlink:href="#m6231c80017" y="36.383966"/>
      </g>
     </g>
    </g>
    <g id="xtick_2">
     <g id="line2d_2">
      <g>
       <use style="fill:#262626;stroke:#262626;stroke-width:1.25;" x="129.872632" xlink:href="#m6231c80017" y="36.383966"/>
      </g>
     </g>
    </g>
    <g id="xtick_3">
     <g id="line2d_3">
      <g>
       <use style="fill:#262626;stroke:#262626;stroke-width:1.25;" x="184.008679" xlink:href="#m6231c80017" y="36.383966"/>
      </g>
     </g>
    </g>
    <g id="xtick_4">
     <g id="line2d_4">
      <g>
       <use style="fill:#262626;stroke:#262626;stroke-width:1.25;" x="238.144726" xlink:href="#m6231c80017" y="36.383966"/>
      </g>
     </g>
    </g>
    <g id="xtick_5">
     <g id="line2d_5">
      <g>
       <use style="fill:#262626;stroke:#262626;stroke-width:1.25;" x="292.280773" xlink:href="#m6231c80017" y="36.383966"/>
      </g>
     </g>
    </g>
    <g id="xtick_6">
     <g id="line2d_6">
      <g>
       <use style="fill:#262626;stroke:#262626;stroke-width:1.25;" x="346.41682" xlink:href="#m6231c80017" y="36.383966"/>
      </g>
     </g>
    </g>
    <g id="xtick_7">
     <g id="line2d_7">
      <g>
       <use style="fill:#262626;stroke:#262626;stroke-width:1.25;" x="400.552867" xlink:href="#m6231c80017" y="36.383966"/>
      </g>
     </g>
    </g>
    <g id="xtick_8">
     <g id="line2d_8">
      <g>
       <use style="fill:#262626;stroke:#262626;stroke-width:1.25;" x="454.688914" xlink:href="#m6231c80017" y="36.383966"/>
      </g>
     </g>
    </g>
   </g>
   <g id="matplotlib.axis_2"/>
   <g id="patch_3">
    <path clip-path="url(#p9a941fdffe)" d="M 249.743893 10.118397 
L 249.743893 33.465569 
L 333.173059 33.465569 
L 333.173059 10.118397 
L 249.743893 10.118397 
z
" style="fill:#5ea1c2;stroke:#565656;stroke-linejoin:miter;stroke-width:1.5;"/>
   </g>
   <g id="line2d_9">
    <path clip-path="url(#p9a941fdffe)" d="M 249.743893 21.791983 
L 128.683186 21.791983 
" style="fill:none;stroke:#565656;stroke-linecap:round;stroke-width:1.5;"/>
   </g>
   <g id="line2d_10">
    <path clip-path="url(#p9a941fdffe)" d="M 333.173059 21.791983 
L 455.953411 21.791983 
" style="fill:none;stroke:#565656;stroke-linecap:round;stroke-width:1.5;"/>
   </g>
   <g id="line2d_11">
    <path clip-path="url(#p9a941fdffe)" d="M 128.683186 15.95519 
L 128.683186 27.628776 
" style="fill:none;stroke:#565656;stroke-linecap:round;stroke-width:1.5;"/>
   </g>
   <g id="line2d_12">
    <path clip-path="url(#p9a941fdffe)" d="M 455.953411 15.95519 
L 455.953411 27.628776 
" style="fill:none;stroke:#565656;stroke-linecap:round;stroke-width:1.5;"/>
   </g>
   <g id="line2d_13">
    <defs>
     <path d="M 0 3.535534 
L 2.12132 0 
L 0 -3.535534 
L -2.12132 0 
z
" id="m3e51632bc7" style="stroke:#565656;stroke-linejoin:miter;"/>
    </defs>
    <g clip-path="url(#p9a941fdffe)">
     <use style="fill:#565656;stroke:#565656;stroke-linejoin:miter;" x="81.7112" xlink:href="#m3e51632bc7" y="21.791983"/>
     <use style="fill:#565656;stroke:#565656;stroke-linejoin:miter;" x="80.212773" xlink:href="#m3e51632bc7" y="21.791983"/>
     <use style="fill:#565656;stroke:#565656;stroke-linejoin:miter;" x="105.915147" xlink:href="#m3e51632bc7" y="21.791983"/>
     <use style="fill:#565656;stroke:#565656;stroke-linejoin:miter;" x="111.344226" xlink:href="#m3e51632bc7" y="21.791983"/>
     <use style="fill:#565656;stroke:#565656;stroke-linejoin:miter;" x="118.830916" xlink:href="#m3e51632bc7" y="21.791983"/>
     <use style="fill:#565656;stroke:#565656;stroke-linejoin:miter;" x="114.660293" xlink:href="#m3e51632bc7" y="21.791983"/>
     <use style="fill:#565656;stroke:#565656;stroke-linejoin:miter;" x="475.978797" xlink:href="#m3e51632bc7" y="21.791983"/>
     <use style="fill:#565656;stroke:#565656;stroke-linejoin:miter;" x="462.216493" xlink:href="#m3e51632bc7" y="21.791983"/>
     <use style="fill:#565656;stroke:#565656;stroke-linejoin:miter;" x="462.33268" xlink:href="#m3e51632bc7" y="21.791983"/>
     <use style="fill:#565656;stroke:#565656;stroke-linejoin:miter;" x="465.048171" xlink:href="#m3e51632bc7" y="21.791983"/>
     <use style="fill:#565656;stroke:#565656;stroke-linejoin:miter;" x="470.686305" xlink:href="#m3e51632bc7" y="21.791983"/>
     <use style="fill:#565656;stroke:#565656;stroke-linejoin:miter;" x="471.173123" xlink:href="#m3e51632bc7" y="21.791983"/>
     <use style="fill:#565656;stroke:#565656;stroke-linejoin:miter;" x="479.640118" xlink:href="#m3e51632bc7" y="21.791983"/>
    </g>
   </g>
   <g id="line2d_14">
    <path clip-path="url(#p9a941fdffe)" d="M 289.185798 10.118397 
L 289.185798 33.465569 
" style="fill:none;stroke:#565656;stroke-linecap:round;stroke-width:1.5;"/>
   </g>
   <g id="patch_4">
    <path d="M 60.241406 36.383966 
L 499.611485 36.383966 
" style="fill:none;stroke:#262626;stroke-linecap:square;stroke-linejoin:miter;stroke-width:1.25;"/>
   </g>
  </g>
  <g id="axes_2">
   <g id="patch_5">
    <path d="M 60.241406 221.215748 
L 499.611485 221.215748 
L 499.611485 55.839943 
L 60.241406 55.839943 
z
" style="fill:none;"/>
   </g>
   <g id="matplotlib.axis_3">
    <g id="xtick_9">
     <g id="line2d_15">
      <path clip-path="url(#p1273f0584c)" d="M 75.736585 221.215748 
L 75.736585 55.839943 
" style="fill:none;stroke:#cccccc;stroke-linecap:round;"/>
     </g>
     <g id="line2d_16">
      <defs>
       <path d="M 0 0 
L 0 6 
" id="m36e5ca45d0" style="stroke:#000000;stroke-width:1.25;"/>
      </defs>
      <g>
       <use style="stroke:#000000;stroke-width:1.25;" x="75.736585" xlink:href="#m36e5ca45d0" y="221.215748"/>
      </g>
     </g>
     <g id="text_1">
      <!-- −15.0 -->
      <g transform="translate(56.760413 241.452467)scale(0.15 -0.15)">
       <defs>
        <path d="M 52.828125 31.203125 
L 5.5625 31.203125 
L 5.5625 39.40625 
L 52.828125 39.40625 
z
" id="ArialMT-8722"/>
        <path d="M 37.25 0 
L 28.46875 0 
L 28.46875 56 
Q 25.296875 52.984375 20.140625 49.953125 
Q 14.984375 46.921875 10.890625 45.40625 
L 10.890625 53.90625 
Q 18.265625 57.375 23.78125 62.296875 
Q 29.296875 67.234375 31.59375 71.875 
L 37.25 71.875 
z
" id="ArialMT-49"/>
        <path d="M 4.15625 18.75 
L 13.375 19.53125 
Q 14.40625 12.796875 18.140625 9.390625 
Q 21.875 6 27.15625 6 
Q 33.5 6 37.890625 10.78125 
Q 42.28125 15.578125 42.28125 23.484375 
Q 42.28125 31 38.0625 35.34375 
Q 33.84375 39.703125 27 39.703125 
Q 22.75 39.703125 19.328125 37.765625 
Q 15.921875 35.84375 13.96875 32.765625 
L 5.71875 33.84375 
L 12.640625 70.609375 
L 48.25 70.609375 
L 48.25 62.203125 
L 19.671875 62.203125 
L 15.828125 42.96875 
Q 22.265625 47.46875 29.34375 47.46875 
Q 38.71875 47.46875 45.15625 40.96875 
Q 51.609375 34.46875 51.609375 24.265625 
Q 51.609375 14.546875 45.953125 7.46875 
Q 39.0625 -1.21875 27.15625 -1.21875 
Q 17.390625 -1.21875 11.203125 4.25 
Q 5.03125 9.71875 4.15625 18.75 
z
" id="ArialMT-53"/>
        <path d="M 9.078125 0 
L 9.078125 10.015625 
L 19.09375 10.015625 
L 19.09375 0 
z
" id="ArialMT-46"/>
        <path d="M 4.15625 35.296875 
Q 4.15625 48 6.765625 55.734375 
Q 9.375 63.484375 14.515625 67.671875 
Q 19.671875 71.875 27.484375 71.875 
Q 33.25 71.875 37.59375 69.546875 
Q 41.9375 67.234375 44.765625 62.859375 
Q 47.609375 58.5 49.21875 52.21875 
Q 50.828125 45.953125 50.828125 35.296875 
Q 50.828125 22.703125 48.234375 14.96875 
Q 45.65625 7.234375 40.5 3 
Q 35.359375 -1.21875 27.484375 -1.21875 
Q 17.140625 -1.21875 11.234375 6.203125 
Q 4.15625 15.140625 4.15625 35.296875 
z
M 13.1875 35.296875 
Q 13.1875 17.671875 17.3125 11.828125 
Q 21.4375 6 27.484375 6 
Q 33.546875 6 37.671875 11.859375 
Q 41.796875 17.71875 41.796875 35.296875 
Q 41.796875 52.984375 37.671875 58.78125 
Q 33.546875 64.59375 27.390625 64.59375 
Q 21.34375 64.59375 17.71875 59.46875 
Q 13.1875 52.9375 13.1875 35.296875 
z
" id="ArialMT-48"/>
       </defs>
       <use xlink:href="#ArialMT-8722"/>
       <use x="58.398438" xlink:href="#ArialMT-49"/>
       <use x="114.013672" xlink:href="#ArialMT-53"/>
       <use x="169.628906" xlink:href="#ArialMT-46"/>
       <use x="197.412109" xlink:href="#ArialMT-48"/>
      </g>
     </g>
    </g>
    <g id="xtick_10">
     <g id="line2d_17">
      <path clip-path="url(#p1273f0584c)" d="M 129.872632 221.215748 
L 129.872632 55.839943 
" style="fill:none;stroke:#cccccc;stroke-linecap:round;"/>
     </g>
     <g id="line2d_18">
      <g>
       <use style="stroke:#000000;stroke-width:1.25;" x="129.872632" xlink:href="#m36e5ca45d0" y="221.215748"/>
      </g>
     </g>
     <g id="text_2">
      <!-- −12.5 -->
      <g transform="translate(110.89646 241.452467)scale(0.15 -0.15)">
       <defs>
        <path d="M 50.34375 8.453125 
L 50.34375 0 
L 3.03125 0 
Q 2.9375 3.171875 4.046875 6.109375 
Q 5.859375 10.9375 9.828125 15.625 
Q 13.8125 20.3125 21.34375 26.46875 
Q 33.015625 36.03125 37.109375 41.625 
Q 41.21875 47.21875 41.21875 52.203125 
Q 41.21875 57.421875 37.46875 61 
Q 33.734375 64.59375 27.734375 64.59375 
Q 21.390625 64.59375 17.578125 60.78125 
Q 13.765625 56.984375 13.71875 50.25 
L 4.6875 51.171875 
Q 5.609375 61.28125 11.65625 66.578125 
Q 17.71875 71.875 27.9375 71.875 
Q 38.234375 71.875 44.234375 66.15625 
Q 50.25 60.453125 50.25 52 
Q 50.25 47.703125 48.484375 43.546875 
Q 46.734375 39.40625 42.65625 34.8125 
Q 38.578125 30.21875 29.109375 22.21875 
Q 21.1875 15.578125 18.9375 13.203125 
Q 16.703125 10.84375 15.234375 8.453125 
z
" id="ArialMT-50"/>
       </defs>
       <use xlink:href="#ArialMT-8722"/>
       <use x="58.398438" xlink:href="#ArialMT-49"/>
       <use x="114.013672" xlink:href="#ArialMT-50"/>
       <use x="169.628906" xlink:href="#ArialMT-46"/>
       <use x="197.412109" xlink:href="#ArialMT-53"/>
      </g>
     </g>
    </g>
    <g id="xtick_11">
     <g id="line2d_19">
      <path clip-path="url(#p1273f0584c)" d="M 184.008679 221.215748 
L 184.008679 55.839943 
" style="fill:none;stroke:#cccccc;stroke-linecap:round;"/>
     </g>
     <g id="line2d_20">
      <g>
       <use style="stroke:#000000;stroke-width:1.25;" x="184.008679" xlink:href="#m36e5ca45d0" y="221.215748"/>
      </g>
     </g>
     <g id="text_3">
      <!-- −10.0 -->
      <g transform="translate(165.032507 241.452467)scale(0.15 -0.15)">
       <use xlink:href="#ArialMT-8722"/>
       <use x="58.398438" xlink:href="#ArialMT-49"/>
       <use x="114.013672" xlink:href="#ArialMT-48"/>
       <use x="169.628906" xlink:href="#ArialMT-46"/>
       <use x="197.412109" xlink:href="#ArialMT-48"/>
      </g>
     </g>
    </g>
    <g id="xtick_12">
     <g id="line2d_21">
      <path clip-path="url(#p1273f0584c)" d="M 238.144726 221.215748 
L 238.144726 55.839943 
" style="fill:none;stroke:#cccccc;stroke-linecap:round;"/>
     </g>
     <g id="line2d_22">
      <g>
       <use style="stroke:#000000;stroke-width:1.25;" x="238.144726" xlink:href="#m36e5ca45d0" y="221.215748"/>
      </g>
     </g>
     <g id="text_4">
      <!-- −7.5 -->
      <g transform="translate(223.339257 241.452467)scale(0.15 -0.15)">
       <defs>
        <path d="M 4.734375 62.203125 
L 4.734375 70.65625 
L 51.078125 70.65625 
L 51.078125 63.8125 
Q 44.234375 56.546875 37.515625 44.484375 
Q 30.8125 32.421875 27.15625 19.671875 
Q 24.515625 10.6875 23.78125 0 
L 14.75 0 
Q 14.890625 8.453125 18.0625 20.40625 
Q 21.234375 32.375 27.171875 43.484375 
Q 33.109375 54.59375 39.796875 62.203125 
z
" id="ArialMT-55"/>
       </defs>
       <use xlink:href="#ArialMT-8722"/>
       <use x="58.398438" xlink:href="#ArialMT-55"/>
       <use x="114.013672" xlink:href="#ArialMT-46"/>
       <use x="141.796875" xlink:href="#ArialMT-53"/>
      </g>
     </g>
    </g>
    <g id="xtick_13">
     <g id="line2d_23">
      <path clip-path="url(#p1273f0584c)" d="M 292.280773 221.215748 
L 292.280773 55.839943 
" style="fill:none;stroke:#cccccc;stroke-linecap:round;"/>
     </g>
     <g id="line2d_24">
      <g>
       <use style="stroke:#000000;stroke-width:1.25;" x="292.280773" xlink:href="#m36e5ca45d0" y="221.215748"/>
      </g>
     </g>
     <g id="text_5">
      <!-- −5.0 -->
      <g transform="translate(277.475304 241.452467)scale(0.15 -0.15)">
       <use xlink:href="#ArialMT-8722"/>
       <use x="58.398438" xlink:href="#ArialMT-53"/>
       <use x="114.013672" xlink:href="#ArialMT-46"/>
       <use x="141.796875" xlink:href="#ArialMT-48"/>
      </g>
     </g>
    </g>
    <g id="xtick_14">
     <g id="line2d_25">
      <path clip-path="url(#p1273f0584c)" d="M 346.41682 221.215748 
L 346.41682 55.839943 
" style="fill:none;stroke:#cccccc;stroke-linecap:round;"/>
     </g>
     <g id="line2d_26">
      <g>
       <use style="stroke:#000000;stroke-width:1.25;" x="346.41682" xlink:href="#m36e5ca45d0" y="221.215748"/>
      </g>
     </g>
     <g id="text_6">
      <!-- −2.5 -->
      <g transform="translate(331.611351 241.452467)scale(0.15 -0.15)">
       <use xlink:href="#ArialMT-8722"/>
       <use x="58.398438" xlink:href="#ArialMT-50"/>
       <use x="114.013672" xlink:href="#ArialMT-46"/>
       <use x="141.796875" xlink:href="#ArialMT-53"/>
      </g>
     </g>
    </g>
    <g id="xtick_15">
     <g id="line2d_27">
      <path clip-path="url(#p1273f0584c)" d="M 400.552867 221.215748 
L 400.552867 55.839943 
" style="fill:none;stroke:#cccccc;stroke-linecap:round;"/>
     </g>
     <g id="line2d_28">
      <g>
       <use style="stroke:#000000;stroke-width:1.25;" x="400.552867" xlink:href="#m36e5ca45d0" y="221.215748"/>
      </g>
     </g>
     <g id="text_7">
      <!-- 0.0 -->
      <g transform="translate(390.127867 241.452467)scale(0.15 -0.15)">
       <use xlink:href="#ArialMT-48"/>
       <use x="55.615234" xlink:href="#ArialMT-46"/>
       <use x="83.398438" xlink:href="#ArialMT-48"/>
      </g>
     </g>
    </g>
    <g id="xtick_16">
     <g id="line2d_29">
      <path clip-path="url(#p1273f0584c)" d="M 454.688914 221.215748 
L 454.688914 55.839943 
" style="fill:none;stroke:#cccccc;stroke-linecap:round;"/>
     </g>
     <g id="line2d_30">
      <g>
       <use style="stroke:#000000;stroke-width:1.25;" x="454.688914" xlink:href="#m36e5ca45d0" y="221.215748"/>
      </g>
     </g>
     <g id="text_8">
      <!-- 2.5 -->
      <g transform="translate(444.263914 241.452467)scale(0.15 -0.15)">
       <use xlink:href="#ArialMT-50"/>
       <use x="55.615234" xlink:href="#ArialMT-46"/>
       <use x="83.398438" xlink:href="#ArialMT-53"/>
      </g>
     </g>
    </g>
    <g id="text_9">
     <!-- $x_{3}$ -->
     <g transform="translate(271.901446 259.831373)scale(0.15 -0.15)">
      <defs>
       <path d="M 60.015625 54.6875 
L 34.90625 27.875 
L 50.296875 0 
L 39.984375 0 
L 28.421875 21.6875 
L 8.296875 0 
L -2.59375 0 
L 24.3125 28.8125 
L 10.015625 54.6875 
L 20.3125 54.6875 
L 30.8125 34.90625 
L 49.125 54.6875 
z
" id="DejaVuSans-Oblique-120"/>
       <path d="M 40.578125 39.3125 
Q 47.65625 37.796875 51.625 33 
Q 55.609375 28.21875 55.609375 21.1875 
Q 55.609375 10.40625 48.1875 4.484375 
Q 40.765625 -1.421875 27.09375 -1.421875 
Q 22.515625 -1.421875 17.65625 -0.515625 
Q 12.796875 0.390625 7.625 2.203125 
L 7.625 11.71875 
Q 11.71875 9.328125 16.59375 8.109375 
Q 21.484375 6.890625 26.8125 6.890625 
Q 36.078125 6.890625 40.9375 10.546875 
Q 45.796875 14.203125 45.796875 21.1875 
Q 45.796875 27.640625 41.28125 31.265625 
Q 36.765625 34.90625 28.71875 34.90625 
L 20.21875 34.90625 
L 20.21875 43.015625 
L 29.109375 43.015625 
Q 36.375 43.015625 40.234375 45.921875 
Q 44.09375 48.828125 44.09375 54.296875 
Q 44.09375 59.90625 40.109375 62.90625 
Q 36.140625 65.921875 28.71875 65.921875 
Q 24.65625 65.921875 20.015625 65.03125 
Q 15.375 64.15625 9.8125 62.3125 
L 9.8125 71.09375 
Q 15.4375 72.65625 20.34375 73.4375 
Q 25.25 74.21875 29.59375 74.21875 
Q 40.828125 74.21875 47.359375 69.109375 
Q 53.90625 64.015625 53.90625 55.328125 
Q 53.90625 49.265625 50.4375 45.09375 
Q 46.96875 40.921875 40.578125 39.3125 
z
" id="DejaVuSans-51"/>
      </defs>
      <use transform="translate(0 0.3125)" xlink:href="#DejaVuSans-Oblique-120"/>
      <use transform="translate(59.179688 -16.09375)scale(0.7)" xlink:href="#DejaVuSans-51"/>
     </g>
    </g>
   </g>
   <g id="matplotlib.axis_4">
    <g id="ytick_1">
     <g id="line2d_31">
      <path clip-path="url(#p1273f0584c)" d="M 60.241406 221.215748 
L 499.611485 221.215748 
" style="fill:none;stroke:#cccccc;stroke-linecap:round;"/>
     </g>
     <g id="line2d_32">
      <defs>
       <path d="M 0 0 
L -6 0 
" id="med61d2352c" style="stroke:#000000;stroke-width:1.25;"/>
      </defs>
      <g>
       <use style="stroke:#000000;stroke-width:1.25;" x="60.241406" xlink:href="#med61d2352c" y="221.215748"/>
      </g>
     </g>
     <g id="text_10">
      <!-- 0 -->
      <g transform="translate(42.4 226.584107)scale(0.15 -0.15)">
       <use xlink:href="#ArialMT-48"/>
      </g>
     </g>
    </g>
    <g id="ytick_2">
     <g id="line2d_33">
      <path clip-path="url(#p1273f0584c)" d="M 60.241406 160.63853 
L 499.611485 160.63853 
" style="fill:none;stroke:#cccccc;stroke-linecap:round;"/>
     </g>
     <g id="line2d_34">
      <g>
       <use style="stroke:#000000;stroke-width:1.25;" x="60.241406" xlink:href="#med61d2352c" y="160.63853"/>
      </g>
     </g>
     <g id="text_11">
      <!-- 50 -->
      <g transform="translate(34.058594 166.006889)scale(0.15 -0.15)">
       <use xlink:href="#ArialMT-53"/>
       <use x="55.615234" xlink:href="#ArialMT-48"/>
      </g>
     </g>
    </g>
    <g id="ytick_3">
     <g id="line2d_35">
      <path clip-path="url(#p1273f0584c)" d="M 60.241406 100.061312 
L 499.611485 100.061312 
" style="fill:none;stroke:#cccccc;stroke-linecap:round;"/>
     </g>
     <g id="line2d_36">
      <g>
       <use style="stroke:#000000;stroke-width:1.25;" x="60.241406" xlink:href="#med61d2352c" y="100.061312"/>
      </g>
     </g>
     <g id="text_12">
      <!-- 100 -->
      <g transform="translate(25.717188 105.429671)scale(0.15 -0.15)">
       <use xlink:href="#ArialMT-49"/>
       <use x="55.615234" xlink:href="#ArialMT-48"/>
       <use x="111.230469" xlink:href="#ArialMT-48"/>
      </g>
     </g>
    </g>
    <g id="text_13">
     <!-- Frequency -->
     <g transform="translate(18.597656 177.272377)rotate(-90)scale(0.15 -0.15)">
      <defs>
       <path d="M 9.8125 72.90625 
L 51.703125 72.90625 
L 51.703125 64.59375 
L 19.671875 64.59375 
L 19.671875 43.109375 
L 48.578125 43.109375 
L 48.578125 34.8125 
L 19.671875 34.8125 
L 19.671875 0 
L 9.8125 0 
z
" id="DejaVuSans-70"/>
       <path d="M 41.109375 46.296875 
Q 39.59375 47.171875 37.8125 47.578125 
Q 36.03125 48 33.890625 48 
Q 26.265625 48 22.1875 43.046875 
Q 18.109375 38.09375 18.109375 28.8125 
L 18.109375 0 
L 9.078125 0 
L 9.078125 54.6875 
L 18.109375 54.6875 
L 18.109375 46.1875 
Q 20.953125 51.171875 25.484375 53.578125 
Q 30.03125 56 36.53125 56 
Q 37.453125 56 38.578125 55.875 
Q 39.703125 55.765625 41.0625 55.515625 
z
" id="DejaVuSans-114"/>
       <path d="M 56.203125 29.59375 
L 56.203125 25.203125 
L 14.890625 25.203125 
Q 15.484375 15.921875 20.484375 11.0625 
Q 25.484375 6.203125 34.421875 6.203125 
Q 39.59375 6.203125 44.453125 7.46875 
Q 49.3125 8.734375 54.109375 11.28125 
L 54.109375 2.78125 
Q 49.265625 0.734375 44.1875 -0.34375 
Q 39.109375 -1.421875 33.890625 -1.421875 
Q 20.796875 -1.421875 13.15625 6.1875 
Q 5.515625 13.8125 5.515625 26.8125 
Q 5.515625 40.234375 12.765625 48.109375 
Q 20.015625 56 32.328125 56 
Q 43.359375 56 49.78125 48.890625 
Q 56.203125 41.796875 56.203125 29.59375 
z
M 47.21875 32.234375 
Q 47.125 39.59375 43.09375 43.984375 
Q 39.0625 48.390625 32.421875 48.390625 
Q 24.90625 48.390625 20.390625 44.140625 
Q 15.875 39.890625 15.1875 32.171875 
z
" id="DejaVuSans-101"/>
       <path d="M 14.796875 27.296875 
Q 14.796875 17.390625 18.875 11.75 
Q 22.953125 6.109375 30.078125 6.109375 
Q 37.203125 6.109375 41.296875 11.75 
Q 45.40625 17.390625 45.40625 27.296875 
Q 45.40625 37.203125 41.296875 42.84375 
Q 37.203125 48.484375 30.078125 48.484375 
Q 22.953125 48.484375 18.875 42.84375 
Q 14.796875 37.203125 14.796875 27.296875 
z
M 45.40625 8.203125 
Q 42.578125 3.328125 38.25 0.953125 
Q 33.9375 -1.421875 27.875 -1.421875 
Q 17.96875 -1.421875 11.734375 6.484375 
Q 5.515625 14.40625 5.515625 27.296875 
Q 5.515625 40.1875 11.734375 48.09375 
Q 17.96875 56 27.875 56 
Q 33.9375 56 38.25 53.625 
Q 42.578125 51.265625 45.40625 46.390625 
L 45.40625 54.6875 
L 54.390625 54.6875 
L 54.390625 -20.796875 
L 45.40625 -20.796875 
z
" id="DejaVuSans-113"/>
       <path d="M 8.5 21.578125 
L 8.5 54.6875 
L 17.484375 54.6875 
L 17.484375 21.921875 
Q 17.484375 14.15625 20.5 10.265625 
Q 23.53125 6.390625 29.59375 6.390625 
Q 36.859375 6.390625 41.078125 11.03125 
Q 45.3125 15.671875 45.3125 23.6875 
L 45.3125 54.6875 
L 54.296875 54.6875 
L 54.296875 0 
L 45.3125 0 
L 45.3125 8.40625 
Q 42.046875 3.421875 37.71875 1 
Q 33.40625 -1.421875 27.6875 -1.421875 
Q 18.265625 -1.421875 13.375 4.4375 
Q 8.5 10.296875 8.5 21.578125 
z
M 31.109375 56 
z
" id="DejaVuSans-117"/>
       <path d="M 54.890625 33.015625 
L 54.890625 0 
L 45.90625 0 
L 45.90625 32.71875 
Q 45.90625 40.484375 42.875 44.328125 
Q 39.84375 48.1875 33.796875 48.1875 
Q 26.515625 48.1875 22.3125 43.546875 
Q 18.109375 38.921875 18.109375 30.90625 
L 18.109375 0 
L 9.078125 0 
L 9.078125 54.6875 
L 18.109375 54.6875 
L 18.109375 46.1875 
Q 21.34375 51.125 25.703125 53.5625 
Q 30.078125 56 35.796875 56 
Q 45.21875 56 50.046875 50.171875 
Q 54.890625 44.34375 54.890625 33.015625 
z
" id="DejaVuSans-110"/>
       <path d="M 48.78125 52.59375 
L 48.78125 44.1875 
Q 44.96875 46.296875 41.140625 47.34375 
Q 37.3125 48.390625 33.40625 48.390625 
Q 24.65625 48.390625 19.8125 42.84375 
Q 14.984375 37.3125 14.984375 27.296875 
Q 14.984375 17.28125 19.8125 11.734375 
Q 24.65625 6.203125 33.40625 6.203125 
Q 37.3125 6.203125 41.140625 7.25 
Q 44.96875 8.296875 48.78125 10.40625 
L 48.78125 2.09375 
Q 45.015625 0.34375 40.984375 -0.53125 
Q 36.96875 -1.421875 32.421875 -1.421875 
Q 20.0625 -1.421875 12.78125 6.34375 
Q 5.515625 14.109375 5.515625 27.296875 
Q 5.515625 40.671875 12.859375 48.328125 
Q 20.21875 56 33.015625 56 
Q 37.15625 56 41.109375 55.140625 
Q 45.0625 54.296875 48.78125 52.59375 
z
" id="DejaVuSans-99"/>
       <path d="M 32.171875 -5.078125 
Q 28.375 -14.84375 24.75 -17.8125 
Q 21.140625 -20.796875 15.09375 -20.796875 
L 7.90625 -20.796875 
L 7.90625 -13.28125 
L 13.1875 -13.28125 
Q 16.890625 -13.28125 18.9375 -11.515625 
Q 21 -9.765625 23.484375 -3.21875 
L 25.09375 0.875 
L 2.984375 54.6875 
L 12.5 54.6875 
L 29.59375 11.921875 
L 46.6875 54.6875 
L 56.203125 54.6875 
z
" id="DejaVuSans-121"/>
      </defs>
      <use xlink:href="#DejaVuSans-70"/>
      <use x="50.269531" xlink:href="#DejaVuSans-114"/>
      <use x="89.132812" xlink:href="#DejaVuSans-101"/>
      <use x="150.65625" xlink:href="#DejaVuSans-113"/>
      <use x="214.132812" xlink:href="#DejaVuSans-117"/>
      <use x="277.511719" xlink:href="#DejaVuSans-101"/>
      <use x="339.035156" xlink:href="#DejaVuSans-110"/>
      <use x="402.414062" xlink:href="#DejaVuSans-99"/>
      <use x="457.394531" xlink:href="#DejaVuSans-121"/>
     </g>
    </g>
   </g>
   <g id="patch_6">
    <path clip-path="url(#p1273f0584c)" d="M 80.212773 221.215748 
L 100.184141 221.215748 
L 100.184141 218.792659 
L 80.212773 218.792659 
z
" style="fill:#4da7d3;fill-opacity:0.5;stroke:#ffffff;stroke-linejoin:miter;"/>
   </g>
   <g id="patch_7">
    <path clip-path="url(#p1273f0584c)" d="M 100.184141 221.215748 
L 120.155508 221.215748 
L 120.155508 216.369571 
L 100.184141 216.369571 
z
" style="fill:#4da7d3;fill-opacity:0.5;stroke:#ffffff;stroke-linejoin:miter;"/>
   </g>
   <g id="patch_8">
    <path clip-path="url(#p1273f0584c)" d="M 120.155508 221.215748 
L 140.126875 221.215748 
L 140.126875 217.581115 
L 120.155508 217.581115 
z
" style="fill:#4da7d3;fill-opacity:0.5;stroke:#ffffff;stroke-linejoin:miter;"/>
   </g>
   <g id="patch_9">
    <path clip-path="url(#p1273f0584c)" d="M 140.126875 221.215748 
L 160.098242 221.215748 
L 160.098242 207.88876 
L 140.126875 207.88876 
z
" style="fill:#4da7d3;fill-opacity:0.5;stroke:#ffffff;stroke-linejoin:miter;"/>
   </g>
   <g id="patch_10">
    <path clip-path="url(#p1273f0584c)" d="M 160.098242 221.215748 
L 180.06961 221.215748 
L 180.06961 199.40795 
L 160.098242 199.40795 
z
" style="fill:#4da7d3;fill-opacity:0.5;stroke:#ffffff;stroke-linejoin:miter;"/>
   </g>
   <g id="patch_11">
    <path clip-path="url(#p1273f0584c)" d="M 180.06961 221.215748 
L 200.040977 221.215748 
L 200.040977 180.02324 
L 180.06961 180.02324 
z
" style="fill:#4da7d3;fill-opacity:0.5;stroke:#ffffff;stroke-linejoin:miter;"/>
   </g>
   <g id="patch_12">
    <path clip-path="url(#p1273f0584c)" d="M 200.040977 221.215748 
L 220.012344 221.215748 
L 220.012344 155.792353 
L 200.040977 155.792353 
z
" style="fill:#4da7d3;fill-opacity:0.5;stroke:#ffffff;stroke-linejoin:miter;"/>
   </g>
   <g id="patch_13">
    <path clip-path="url(#p1273f0584c)" d="M 220.012344 221.215748 
L 239.983711 221.215748 
L 239.983711 124.292199 
L 220.012344 124.292199 
z
" style="fill:#4da7d3;fill-opacity:0.5;stroke:#ffffff;stroke-linejoin:miter;"/>
   </g>
   <g id="patch_14">
    <path clip-path="url(#p1273f0584c)" d="M 239.983711 221.215748 
L 259.955078 221.215748 
L 259.955078 97.638223 
L 239.983711 97.638223 
z
" style="fill:#4da7d3;fill-opacity:0.5;stroke:#ffffff;stroke-linejoin:miter;"/>
   </g>
   <g id="patch_15">
    <path clip-path="url(#p1273f0584c)" d="M 259.955078 221.215748 
L 279.926446 221.215748 
L 279.926446 69.772703 
L 259.955078 69.772703 
z
" style="fill:#4da7d3;fill-opacity:0.5;stroke:#ffffff;stroke-linejoin:miter;"/>
   </g>
   <g id="patch_16">
    <path clip-path="url(#p1273f0584c)" d="M 279.926446 221.215748 
L 299.897813 221.215748 
L 299.897813 63.714981 
L 279.926446 63.714981 
z
" style="fill:#4da7d3;fill-opacity:0.5;stroke:#ffffff;stroke-linejoin:miter;"/>
   </g>
   <g id="patch_17">
    <path clip-path="url(#p1273f0584c)" d="M 299.897813 221.215748 
L 319.86918 221.215748 
L 319.86918 72.195792 
L 299.897813 72.195792 
z
" style="fill:#4da7d3;fill-opacity:0.5;stroke:#ffffff;stroke-linejoin:miter;"/>
   </g>
   <g id="patch_18">
    <path clip-path="url(#p1273f0584c)" d="M 319.86918 221.215748 
L 339.840547 221.215748 
L 339.840547 108.542122 
L 319.86918 108.542122 
z
" style="fill:#4da7d3;fill-opacity:0.5;stroke:#ffffff;stroke-linejoin:miter;"/>
   </g>
   <g id="patch_19">
    <path clip-path="url(#p1273f0584c)" d="M 339.840547 221.215748 
L 359.811914 221.215748 
L 359.811914 133.984554 
L 339.840547 133.984554 
z
" style="fill:#4da7d3;fill-opacity:0.5;stroke:#ffffff;stroke-linejoin:miter;"/>
   </g>
   <g id="patch_20">
    <path clip-path="url(#p1273f0584c)" d="M 359.811914 221.215748 
L 379.783282 221.215748 
L 379.783282 138.830731 
L 359.811914 138.830731 
z
" style="fill:#4da7d3;fill-opacity:0.5;stroke:#ffffff;stroke-linejoin:miter;"/>
   </g>
   <g id="patch_21">
    <path clip-path="url(#p1273f0584c)" d="M 379.783282 221.215748 
L 399.754649 221.215748 
L 399.754649 178.811695 
L 379.783282 178.811695 
z
" style="fill:#4da7d3;fill-opacity:0.5;stroke:#ffffff;stroke-linejoin:miter;"/>
   </g>
   <g id="patch_22">
    <path clip-path="url(#p1273f0584c)" d="M 399.754649 221.215748 
L 419.726016 221.215748 
L 419.726016 190.927139 
L 399.754649 190.927139 
z
" style="fill:#4da7d3;fill-opacity:0.5;stroke:#ffffff;stroke-linejoin:miter;"/>
   </g>
   <g id="patch_23">
    <path clip-path="url(#p1273f0584c)" d="M 419.726016 221.215748 
L 439.697383 221.215748 
L 439.697383 210.311849 
L 419.726016 210.311849 
z
" style="fill:#4da7d3;fill-opacity:0.5;stroke:#ffffff;stroke-linejoin:miter;"/>
   </g>
   <g id="patch_24">
    <path clip-path="url(#p1273f0584c)" d="M 439.697383 221.215748 
L 459.668751 221.215748 
L 459.668751 215.158026 
L 439.697383 215.158026 
z
" style="fill:#4da7d3;fill-opacity:0.5;stroke:#ffffff;stroke-linejoin:miter;"/>
   </g>
   <g id="patch_25">
    <path clip-path="url(#p1273f0584c)" d="M 459.668751 221.215748 
L 479.640118 221.215748 
L 479.640118 212.734938 
L 459.668751 212.734938 
z
" style="fill:#4da7d3;fill-opacity:0.5;stroke:#ffffff;stroke-linejoin:miter;"/>
   </g>
   <g id="line2d_37">
    <path clip-path="url(#p1273f0584c)" d="M 80.212773 219.648378 
L 96.270154 218.820631 
L 104.298844 218.171306 
L 114.334707 217.120317 
L 122.363398 216.096408 
L 128.384915 215.129741 
L 134.406433 213.881446 
L 138.420778 212.846005 
L 142.435124 211.621787 
L 146.449469 210.190605 
L 150.463814 208.536162 
L 154.478159 206.643276 
L 158.492504 204.498874 
L 162.506849 202.094259 
L 166.521195 199.427081 
L 170.53554 196.501366 
L 174.549885 193.32496 
L 178.56423 189.905214 
L 182.578575 186.244736 
L 186.59292 182.339009 
L 190.607266 178.176929 
L 194.621611 173.7445 
L 198.635956 169.031418 
L 202.650301 164.03949 
L 208.671819 156.082516 
L 214.693337 147.715664 
L 226.736372 130.47746 
L 234.765062 118.63841 
L 240.78658 109.388731 
L 250.822443 93.790602 
L 254.836788 87.975869 
L 258.851133 82.722273 
L 260.858306 80.364727 
L 262.865479 78.211522 
L 264.872651 76.276518 
L 266.879824 74.56974 
L 268.886996 73.097592 
L 270.894169 71.86317 
L 272.901342 70.866583 
L 274.908514 70.105212 
L 276.915687 69.573874 
L 278.922859 69.264877 
L 280.930032 69.168022 
L 282.937204 69.270607 
L 284.944377 69.557528 
L 286.95155 70.011568 
L 288.958722 70.613929 
L 292.973067 72.185681 
L 296.987413 74.127774 
L 301.001758 76.341295 
L 305.016103 78.806721 
L 309.030448 81.591827 
L 313.044793 84.82336 
L 315.051966 86.648046 
L 317.059138 88.627961 
L 321.073484 93.063922 
L 325.087829 98.07204 
L 331.109347 106.225844 
L 337.130864 114.301193 
L 341.145209 119.207101 
L 345.159555 123.56927 
L 349.1739 127.405596 
L 353.188245 130.864756 
L 361.216935 137.630341 
L 365.23128 141.430455 
L 369.245626 145.720851 
L 373.259971 150.516066 
L 377.274316 155.712399 
L 389.317351 171.747565 
L 393.331697 176.65109 
L 397.346042 181.196887 
L 401.360387 185.40201 
L 405.374732 189.310979 
L 409.389077 192.960593 
L 413.403422 196.357985 
L 417.417768 199.478885 
L 421.432113 202.28306 
L 425.446458 204.736446 
L 429.460803 206.828002 
L 433.475148 208.574138 
L 437.489494 210.011404 
L 441.503839 211.184325 
L 445.518184 212.136291 
L 449.532529 212.907685 
L 455.554047 213.817782 
L 473.6186 216.267897 
L 479.640118 217.31794 
L 479.640118 217.31794 
" style="fill:none;stroke:#4da7d3;stroke-linecap:round;stroke-width:1.5;"/>
   </g>
   <g id="patch_26">
    <path d="M 60.241406 221.215748 
L 60.241406 55.839943 
" style="fill:none;stroke:#262626;stroke-linecap:square;stroke-linejoin:miter;stroke-width:1.25;"/>
   </g>
   <g id="patch_27">
    <path d="M 60.241406 221.215748 
L 499.611485 221.215748 
" style="fill:none;stroke:#262626;stroke-linecap:square;stroke-linejoin:miter;stroke-width:1.25;"/>
   </g>
  </g>
 </g>
 <defs>
  <clipPath id="p9a941fdffe">
   <rect height="29.183966" width="439.370079" x="60.241406" y="7.2"/>
  </clipPath>
  <clipPath id="p1273f0584c">
   <rect height="165.375805" width="439.370079" x="60.241406" y="55.839943"/>
  </clipPath>
 </defs>
</svg>
